<?xml version="1.0" encoding="UTF-8" standalone="no"?>
<!-- Created with Inkscape (http://www.inkscape.org/) -->

<svg
   width="137.99989mm"
   height="56.059177mm"
   viewBox="0 0 137.99989 56.059177"
   version="1.1"
   id="svg1"
   inkscape:version="1.3 (0e150ed6c4, 2023-07-21)"
   sodipodi:docname="cellgen-docs.svg"
   xmlns:inkscape="http://www.inkscape.org/namespaces/inkscape"
   xmlns:sodipodi="http://sodipodi.sourceforge.net/DTD/sodipodi-0.dtd"
   xmlns="http://www.w3.org/2000/svg"
   xmlns:svg="http://www.w3.org/2000/svg">
  <sodipodi:namedview
     id="namedview1"
     pagecolor="#ffffff"
     bordercolor="#666666"
     borderopacity="1.0"
     inkscape:showpageshadow="2"
     inkscape:pageopacity="0.0"
     inkscape:pagecheckerboard="0"
     inkscape:deskcolor="#d1d1d1"
     inkscape:document-units="mm"
     inkscape:zoom="0.86412738"
     inkscape:cx="396.93222"
     inkscape:cy="561.25984"
     inkscape:window-width="1920"
     inkscape:window-height="1216"
     inkscape:window-x="0"
     inkscape:window-y="0"
     inkscape:window-maximized="1"
     inkscape:current-layer="g33" />
  <defs
     id="defs1" />
  <g
     inkscape:label="Réteg 1"
     inkscape:groupmode="layer"
     id="layer1"
     transform="translate(-28.814933,-230.61938)">
    <path
       id="rect4"
       style="fill:#000000;fill-opacity:1;stroke:none;stroke-width:0.5;stroke-linecap:round;stroke-linejoin:round;stroke-dasharray:none;stroke-dashoffset:0"
       d="m 79.402543,230.61942 v 0.0377 h -50.58761 v 1.67948 h 5.137671 v 2.12442 1.67948 h 3.309875 v -1.67948 -2.12442 h 5.088579 v 2.12442 1.67948 h 3.309875 v -1.67948 -2.12442 h 5.878711 v 2.12442 1.67948 0.83974 h 1.729094 v -0.83974 -1.67948 -2.12442 h 26.133805 v 0.002 h 6.083866 v 2.11615 1.65364 0.85938 h 1.653646 v -0.85938 -1.65364 -2.11615 h 12.498978 v 2.11615 1.65364 1.71928 1.71927 0.79375 h 1.719277 v -0.79375 -1.71927 -1.71928 -1.65364 -2.11615 h 23.47712 v 2.11615 1.65364 0.85938 h 6.94376 v -0.85938 -1.65364 -2.11615 h 7.8698 v 2.11615 1.65364 0.85938 h 1.71979 v -0.85938 -1.65364 -2.11615 h 7.00991 v -0.0408 h 5.96553 v 2.09703 1.7322 0.82062 h 1.73219 v -0.82062 -1.7322 -2.09703 h 7.65793 v 2.55282 1.64072 0.82063 h 1.7322 v -0.82063 -1.64072 -2.55282 h 1.34824 v -1.64072 h -18.43609 v -0.0377 z m 79.135217,3.41065 v 0.82062 1.64072 2.64429 1.73219 h 1.45883 v 12.76305 h -2.27945 v 1.73219 h 3.92017 v -1.73219 -12.76305 -1.73219 h -1.36735 v -2.64429 -1.64072 -0.82062 z m -128.784383,0.0357 v 0.79014 1.68 0.83974 4.69325 1.67949 9.08988 0.83974 1.68 0.79014 h 2.519743 v -0.79014 -1.68 -0.83974 h -0.839742 v -9.08988 h 7.509102 v 1.72909 0.79065 0.88883 h 4.19871 v 0.79065 h 5.23689 v -0.79065 -0.88883 h -3.507796 v -0.79065 h -4.19871 v -1.72909 -1.67949 h -9.238196 v -4.69325 h 0.839742 v -0.83974 -1.68 -0.79014 z m 17.58704,0 v 0.79014 1.68 2.12441 0.88884 0.79065 h 11.115601 v -0.79065 h 13.88184 v -0.88884 -0.79065 H 56.776534 v 0.79065 h -7.707023 v -2.12441 -1.68 -0.79014 z m 101.989633,0.32918 v 1.7322 1.73219 0.72915 0.91158 0.82062 h 5.01417 v 2.18798 1.73219 h 2.00556 v 1.18546 0.8201 1.64125 0.82062 1.09399 h -6.19962 v 1.73219 0.91158 h -0.36432 v 0.27336 0.91158 0.82062 0.91157 0.72967 h 2.09651 v -0.72967 -0.91157 -0.82062 -0.91158 -0.27336 -0.91158 h 6.19963 v -1.73219 -1.09399 h 0.0909 v -0.82062 -1.64125 -0.8201 h -0.0909 v -1.18546 -1.73219 h -2.00557 v -2.18798 -0.82062 -0.91158 h -3.46439 v -0.72915 -1.73219 -1.7322 z m -68.869691,0.0599 v 1.65364 1.71928 0.79375 0.92552 0.79375 h 5.02605 v 2.1823 1.71979 1.19011 0.79375 1.71927 0.79375 1.91771 h -4.2323 v 1.65313 1.32292 1.71928 0.79375 h 1.719275 v -0.79375 -1.71928 -1.32292 h 4.166671 v -1.65313 -1.91771 h 2.11615 v -0.79375 -1.71927 -0.79375 h -1.918229 v -1.19011 -1.71979 h -0.197921 v -2.1823 -0.79375 -0.92552 h -3.372921 v -0.79375 -1.71928 -1.65364 z m 8.398971,0 v 1.65364 1.71928 1.71927 1.32292 h 3.306775 v -1.32292 -1.71927 -1.71928 -1.65364 z m 5.224487,0 v 1.65364 1.71928 1.71927 h 0.79375 v 2.97605 1.71979 h 4.761466 v 1.19011 0.79375 1.71927 0.79375 1.12396 h -4.761466 v 1.65365 2.11615 1.71928 0.79375 h 1.653129 v -0.79375 -1.71928 -2.11615 h 4.827614 v -1.65365 -1.12396 h 2.11615 v -0.79375 -1.71927 -0.79375 h -2.11615 v -1.19011 -1.71979 h -4.827614 v -2.97605 h 0.79375 v -1.71927 -1.71928 -1.65364 z m 20.964093,0 v 1.65364 h 6.41459 v 3.04168 1.71979 h 0.79375 v 1.65313 1.71979 5.62084 h -11.77137 v 1.65365 2.11615 1.71928 0.79375 h 1.65313 v -0.79375 -1.71928 -2.11615 h 11.83752 v -1.65365 -5.62084 h 0.19844 v -1.71979 h -0.19844 v -1.65313 -1.71979 h -0.79323 v -3.04168 -1.65364 z m 18.98024,0 v 1.65364 h 3.30625 v -1.65364 z m 8.99376,0 v 1.65364 1.71928 1.71927 1.32292 h 2.84376 v 11.83752 h -2.84376 v 1.32292 1.71927 h 4.49689 v -1.71927 -1.32292 -11.83752 -1.32292 -1.71927 -1.71928 -1.65364 z m -87.085635,0.006 v 1.67948 H 76.14176 v 4.74235 h 0.592729 v 13.19041 H 55.936275 v 1.67948 h 22.527307 v -1.67948 -13.19041 -4.74235 -1.67948 z m -17.784444,4.19922 v 1.67949 h 4.989359 v 1.72909 0.88935 0.79014 H 63.445377 V 242.958 242.06865 241.278 h -3.309875 v 0.79065 H 44.870284 v -1.72909 -1.67949 z m 65.719499,0.4899 v 1.71979 h 1.38906 v 5.35678 1.71927 4.76147 h -1.38906 v 1.71979 h 3.10834 v -1.71979 -4.76147 h 2.64531 v -1.71927 h -2.64531 v -5.35678 h 11.04428 v 5.35678 h -0.85989 v 1.71927 h 3.30677 v -1.71927 h -0.7276 v -5.35678 -1.71979 z m 22.55108,0 v 1.71979 4.56303 h -0.0662 v 0.79375 1.71927 0.79375 h 0.0662 v 1.12396 0.79375 0.8599 h 2.84375 v 0.79323 1.7198 1.71927 h 3.30678 v -1.71927 -1.7198 -0.79323 -0.8599 -0.79375 h -4.43074 v -1.12396 -0.79375 -1.71927 -0.79375 -4.56303 h 7.93595 v 1.65313 1.71979 h 6.15001 v 1.19011 0.79375 1.71927 h 0.13229 v 0.79375 h 1.7198 v -0.79375 -1.71927 -0.79375 h -0.1323 v -1.19011 -1.71979 h -6.21667 v -1.65313 -1.71979 z m 23.36343,3.35845 v 3.73775 1.64125 h 4.37596 v -1.64125 h -2.73523 v -3.73775 z m -68.928606,0.0145 v 2.9099 0.79375 1.38854 h 0.132292 v 0.33073 0.79375 h 1.653129 v -0.79375 -0.33073 -1.38854 -0.79375 h -0.06615 v -2.9099 z m 32.206816,0 v 1.71979 1.71927 h -1.32292 v 0.26459 1.71927 h 3.30678 v -1.71927 -0.26459 h -0.0662 v -1.71927 -1.71979 z m 18.38493,0 v 1.71979 1.98386 h -0.72761 v 1.71927 h 3.30678 v -1.71927 h -0.8599 v -1.98386 h 0.19844 v -1.71979 z m -59.802553,0.0398 v 2.91455 h -0.296623 v 0.79065 1.38286 0.29662 0.79065 h 1.729094 v -0.79065 -0.29662 h 0.494027 v -1.38286 -0.79065 -2.91455 z m 91.996453,2.86339 v 0.45579 h -0.091 v 0.36431 1.64125 h 0.091 v 0.82062 h 1.73219 v -0.82062 -1.64125 -0.36431 -0.45579 z m -130.381707,0.0512 v 0.49403 0.29662 1.67948 0.79065 h 1.48208 v 2.32182 h 1.926498 v -2.32182 -0.79065 -1.67948 -0.29662 h -1.729094 v -0.49403 z m 61.285665,0.48472 v 0.26459 1.71927 h 3.306258 v -1.71927 -0.26459 z m 41.531312,0 v 0.26459 1.71927 6.48126 h 1.65313 v -6.48126 h 1.71927 v -1.71927 h -1.71927 v -0.26459 z m -82.809412,0.009 v 0.29662 1.67948 h 10.868587 v -1.67948 -0.29662 z m -14.326258,3.06286 v 0.34571 1.28468 1.67948 0.79065 h 2.321822 v -0.79065 -1.67948 -1.28468 -0.34571 z m 28.010694,0.34571 v 1.28468 0.39532 1.28416 h 5.384684 v -1.28416 -0.39532 h -3.458187 v -1.28468 z m -23.811984,0.49403 v 0.79065 1.67948 1.7291 1.67948 2.1208 h -6.668843 v -2.1208 -1.67948 -0.79014 h -1.729094 v 0.79014 1.67948 2.1208 h -5.92832 v 0.004 1.68 0.0165 h 9.859863 v 2.08256 1.70015 h 3.272669 v -1.70015 -2.08256 h 14.152624 v 2.08256 1.70015 h 3.272152 v -1.70015 -2.08256 h 6.927742 v 2.08256 1.70015 1.69964 1.70015 0.80771 h 1.700155 v -0.80771 -1.70015 -1.69964 -1.70015 -2.08256 h 2.214852 v 0.0155 h 6.017204 v 2.09651 1.7322 0.72967 h 1.732194 v -0.72967 -1.7322 -2.09651 h 7.65793 v 2.09651 1.7322 0.72967 h 1.732194 v -0.72967 -1.7322 -2.09651 h 27.896998 v 2.09651 1.7322 h 8.47856 v -1.7322 -2.09651 h 19.69233 v 2.09651 1.7322 h 3.28197 v -1.7322 -2.09651 h 11.76053 v 2.09651 1.7322 0.72967 h 1.64072 v -0.72967 -1.7322 -2.09651 h 6.65541 v -0.032 h 0.0538 v -1.73219 h -1.34824 v -2.09703 -1.7322 -0.72915 h -1.7322 v 0.72915 1.7322 2.09703 h -7.65793 v -2.09703 -1.7322 -0.72915 h -1.73219 v 0.72915 1.7322 2.09703 h -6.01721 v 0.032 h -6.95823 v -2.10737 -1.71927 -0.79375 h -1.71979 v 0.79375 1.71927 2.10737 h -13.09429 v -2.10737 -1.71927 -0.79375 h -1.71927 v 0.79375 1.71927 2.10737 h -22.68337 v -2.10737 -1.71927 h -3.306776 v 1.71927 2.10737 H 87.933288 v -2.10737 -1.71927 H 84.62703 v 1.71927 2.10737 H 70.21499 v 0.0165 H 53.268738 v -2.1208 -1.67948 -0.79014 h -1.729094 v 0.79014 1.67948 2.1208 h -6.66936 v -2.1208 -1.67948 -1.7291 -1.67948 -0.79065 z m 4.199227,0 v 0.79065 0.88935 2.1239 1.68 0.79014 h 1.729094 v -0.79014 -1.68 -2.1239 h 11.065991 v 0.79013 h 3.309875 v -0.79013 -0.88935 -0.79065 z m 42.312663,2.56884 v 0.26458 0.92604 1.71928 0.79375 h 2.314587 v -0.79375 -1.71928 -0.92604 -0.26458 z m -17.979264,8.87852 v 0.72916 0.91157 0.82062 0.91157 0.27337 h 2.096513 v -0.27337 -0.91157 -0.82062 -0.91157 -0.72916 z m 18.780249,0 v 0.72916 1.73219 1.27641 h -1.367359 v 1.73219 10.66654 1.73219 h 1.367359 v 1.73219 1.64073 0.82062 h 1.732194 v -0.82062 -1.64073 -1.73219 -1.73219 h -1.458826 v -10.66654 h 1.458826 v -1.73219 -1.27641 -1.73219 -0.72916 z m 35.008195,0 v 0.72916 1.73219 1.27641 h -3.19102 v 1.73219 6.92878 H 110.9665 v -1.73219 -0.82063 -1.64072 h -0.0909 v -0.82062 h -1.73219 v 0.82062 1.64072 0.82063 h 0.0909 v 1.73219 1.64073 h 13.03693 v 1.18545 1.7322 h 2.3704 v 3.0086 1.73219 h 3.92017 v -1.73219 h -2.18798 v -3.0086 -1.7322 h -2.46135 v -1.18545 -1.64073 -6.92878 h 3.19102 v -1.73219 -1.27641 -1.73219 -0.72916 z m -95.79725,0.33487 v 1.70015 1.69964 1.70015 11.13524 1.69964 1.70015 1.70016 h 3.485059 v -1.70016 -1.70015 h 13.939718 v 1.70015 1.70016 h 3.272668 v -1.70016 -1.70015 -1.69964 h -18.99729 v -11.13481 h 26.519828 v 1.91255 0.8077 1.69964 h 1.104842 v 0.8077 h 1.700155 v -0.8077 -1.69964 -0.8077 h -1.104842 v -1.91255 -1.70015 h -9.222693 v -1.69964 -1.70015 h -3.272668 v 1.70015 1.69964 H 33.150069 v -1.69964 -1.70015 z m 31.619776,0 v 1.70015 1.69964 1.70015 h 1.615405 v 7.73493 h -1.615405 v 1.70016 1.70015 1.69964 1.70015 1.70016 h 3.315043 v -1.70016 -1.70015 -1.69964 -1.70015 -1.70016 -7.73493 -1.70015 -1.69964 -1.70015 z m 37.374463,0.0294 v 1.7322 h 7.019721 v 1.64124 1.73219 6.92878 h -1.45882 v 1.64073 5.56141 h -9.754961 v 1.64073 h 11.487151 v -1.64073 -5.56141 h 1.36788 v -1.64073 -6.92878 h 11.30473 v 1.91462 0.82062 1.64072 h 0.091 v 0.82063 h 1.7322 v -0.82063 -1.64072 -0.82062 h -0.0915 v -1.91462 -1.73219 h -13.03641 v -1.64124 -1.7322 z m 30.814141,0 v 1.7322 h 9.75496 v 1.64124 1.73219 h 6.56445 v 1.91462 0.82062 h -5.1e-4 v 1.64072 h 5.1e-4 v 0.82063 h -5.1e-4 v 4.55837 h -5.37849 v 1.7322 3.0086 h -6.19962 v 1.73219 h 7.93182 v -1.73219 -3.0086 h 5.37848 v -1.7322 -4.55837 h 0.91209 v -0.82063 -1.64072 -0.82062 h -0.91209 v -1.91462 -1.73219 h -6.56394 v -1.64124 -1.7322 z m 19.14508,0 v 1.7322 h 5.83479 v 2.46186 1.7322 h 5.56141 v 1.09399 0.82062 1.64072 0.82063 1.18494 h -1.00304 v 1.73219 h 1.00304 v 2.18798 h -6.38152 v 1.73219 2.09703 1.64073 0.82062 h 1.7322 v -0.82062 -1.64073 -2.09703 h 6.38152 v -1.73219 -2.18798 -1.73219 -1.18494 h 0.45578 v -0.82063 -1.64072 -0.82062 h -0.45578 v -1.09399 -1.7322 h -5.65237 v -2.46186 -1.7322 z m 13.21935,0 v 1.7322 h 1.82366 v 1.64124 1.73219 h 0.54674 v 7.65793 h -0.54674 v 1.7322 5.10563 h -1.82366 v 1.73219 h 3.46439 v -1.73219 -5.10563 h 0.6382 v -1.7322 -7.65793 -1.73219 h -0.6382 v -1.64124 -1.7322 z m -82.232706,0.36484 v 1.73219 h 2.279448 v 12.76356 h -1.458826 v 1.7322 2.64376 1.64073 0.82062 h 1.732194 v -0.82062 -1.64073 -2.64376 h 1.367359 v -1.7322 -12.76356 -1.73219 z m 15.042493,0.91157 v 1.73219 0.36484 1.73219 h 2.552816 v 1.91462 0.82062 1.64072 h 0.182418 v 0.82063 h 1.640726 v -0.82063 -1.64072 -0.82062 h -0.09095 v -1.91462 -1.73219 h -2.552816 v -0.36484 -1.73219 z m -22.609473,2.00608 v 0.91157 1.7322 h 6.199622 v 1.09399 0.82062 1.64072 0.82063 1.18494 h -2.005562 v 1.73219 2.18798 h -5.014681 v 0.82062 0.91157 0.72968 1.73219 1.73219 H 74.5 v -1.73219 -1.73219 -0.72968 h 3.464388 v -0.91157 -0.82062 -2.18798 h 2.005562 v -1.73219 -1.18494 h 0.09095 v -0.82063 -1.64072 -0.82062 h -0.09095 v -1.09399 -1.7322 h -6.199621 v -0.91157 z m -38.888065,3.70055 v 0.8077 0.29714 1.4025 0.8077 h 1.699638 v 2.50734 1.70016 H 54.99473 v -1.70016 -2.50734 h 0.892452 v -0.8077 -1.4025 -0.29714 -0.8077 h -1.699638 v 0.8077 0.29714 h -0.892451 v 1.4025 0.8077 2.50734 H 36.549861 v -2.50734 -0.8077 -1.4025 h -0.297656 v -0.29714 -0.8077 z m 6.204789,0 v 0.8077 0.29714 1.4025 0.29766 0.51004 h 1.700155 v -0.51004 h 4.717541 v -0.29766 -1.4025 h -4.717541 v -0.29714 -0.8077 z m 8.41499,0 v 0.8077 0.29714 1.4025 0.29766 0.51004 h 1.700155 v -0.51004 h 0.892452 v -0.29766 -1.4025 h -0.892452 v -0.29714 -0.8077 z m 37.761003,0.0372 v 0.82062 h -0.09095 v 1.64072 0.36484 h 0.09095 v 0.45579 h 1.732194 v -0.45579 -0.36484 -1.64072 -0.82062 z m 7.020243,0 v 0.82062 1.64072 0.82063 h 0.09095 v 1.73219 1.64073 h 6.56394 v 1.18545 1.7322 h 1.732196 v -1.7322 -1.18545 h 1.64124 v -1.64073 -1.73219 h 1.27641 v -0.82063 -1.64072 -0.82062 h -1.7322 v 0.82062 h -1.2764 v 1.64072 0.82063 1.73219 h -6.472992 v -1.73219 -0.82063 -1.64072 h -0.09095 v -0.82062 z m 21.424016,0 v 0.82062 0.27337 h -0.91158 v 1.36735 0.36484 h 0.91158 v 0.45579 h 1.64124 v -0.45579 -0.36484 -1.36735 -0.27337 -0.82062 z m 13.58418,0 v 0.82062 1.64072 0.82063 h 0.45579 v 4.55837 1.7322 h 10.30169 v -1.7322 -4.55837 h 0.54726 v -0.82063 -1.64072 -0.82062 h -1.7322 v 0.82062 h -0.45578 v 1.64072 0.82063 4.55837 h -6.92878 v -4.55837 -0.82063 -1.64072 h -0.54725 v -0.82062 z m 4.74028,0 v 0.82062 h -0.82011 v 1.64072 0.82063 1.18494 1.73219 h 1.64073 v -1.73219 -1.18494 h 0.91157 v -0.82063 -1.64072 -0.82062 z m 9.66401,0 v 0.82062 h -1.36736 v 1.64072 0.82063 1.18494 1.73219 h 1.73219 v -1.73219 -1.18494 h 1.2759 v -0.82063 -1.64072 -0.82062 z m -70.289764,0.82062 v 1.64072 3.73776 h 1.640726 v -3.73776 h 2.735234 v -1.64072 z m 78.768314,0 v 0.27337 1.36735 2.55282 h -0.6382 v 1.64073 2.91765 h 1.73219 v -2.91765 h 0.63821 v -1.64073 -2.55282 h 2.27893 v 0.36484 h 1.64124 v -0.36484 h 2.09703 v -1.36735 -0.27337 z m -84.142147,4.15737 v 0.80718 1.70016 1.70015 1.69964 1.70015 1.70016 2.08256 h -6.927742 v -2.08256 -1.70016 -1.70015 -1.69964 h -3.272152 v 1.69964 1.70015 1.70016 2.08256 H 41.947465 v -2.08256 -1.70016 h -3.272669 v 1.70016 2.08256 h -9.859863 v 1.60507 H 166.76103 v -1.56321 h -6.65541 v -2.09652 -1.73219 -0.82062 h -1.64072 v 0.82062 1.73219 2.09652 h -7.29361 v -2.09652 -1.73219 -0.82062 h -6.92878 v 0.82062 1.73219 2.09652 h -21.33307 v -2.55282 -1.64073 -0.82062 h -1.64072 v 0.82062 1.64073 2.55282 h -6.92878 v -2.09652 -1.73219 h -3.28197 v 1.73219 2.09652 H 87.354512 v -2.55282 -1.64073 -0.82062 h -1.732194 v 0.82062 1.64073 2.55282 h -7.65793 v -2.09652 -1.73219 -0.82062 h -1.732194 v 0.82062 1.73219 2.09652 h -5.979997 v -0.0419 h -2.252059 v -2.08256 -1.70016 -1.70015 -1.69964 -1.70015 -1.70016 -0.80718 z m 41.384547,3.77393 v 1.73219 1.73219 1.64073 0.82062 h 1.64125 v -0.82062 -1.64073 -1.73219 h 6.74636 v 1.73219 1.64073 0.82062 h 1.64072 v -0.82062 -1.64073 -1.73219 -1.73219 z" />
  </g>
</svg>
