<?xml version="1.0" encoding="UTF-8" standalone="no"?>
<!-- Created with Inkscape (http://www.inkscape.org/) -->

<svg
   width="257.54706mm"
   height="28.899998mm"
   viewBox="0 0 257.54706 28.899998"
   version="1.1"
   id="svg1"
   xmlns="http://www.w3.org/2000/svg"
   xmlns:svg="http://www.w3.org/2000/svg">
  <defs
     id="defs1" />
  <g
     id="layer1"
     transform="translate(0,-195.00001)">
    <path
       id="path2-89-2"
       style="fill:#000000;stroke:none;stroke-width:0.264583"
       d="m 161.001,195 h 96.54605 v 1.64101 H 161.001 Z m 74.02776,1.64101 h 6.92871 v 2.09685 h -6.92871 z m -33.18486,0 h 3.28201 v 2.09685 h -3.28201 z m 47.40694,0 h 1.64101 v 2.09685 h -1.64101 z m -82.23281,0 h 1.73218 v 2.09685 h -1.73218 z m 9.39022,0 h 1.73218 v 2.55268 h -1.73218 z m 30.44985,1.73218 h 1.641 v 0.8205 h -1.641 z m -8.38739,0 h 1.64101 v 0.8205 h -1.64101 z m -17.2306,0 h 1.73218 v 0.8205 h -1.73218 z m -10.02838,0 h 1.73217 v 0.8205 h -1.73217 z m 40.8429,-1.73218 h 1.64101 v 2.55268 h -1.64101 z m 32.36435,1.73218 h 1.73218 v 0.8205 h -1.73218 z m -77.40094,0.36467 h 1.73217 v 1.73217 h -1.73217 z m 57.98233,0 h 7.93154 v 1.73217 h -7.93154 z m -9.57256,0 h 3.92019 v 1.73217 h -3.92019 z m -13.58391,0 h 3.28201 v 1.73217 h -3.28201 z m -39.84006,0 h 3.28202 v 1.73217 h -3.28202 z m 73.02492,0 h 6.92871 v 1.73217 h -6.92871 z m 14.22208,0 h 1.64101 v 1.73217 h -1.64101 z m 3.37319,0 h 3.46435 v 1.73217 h -3.46435 z m -40.5694,0.45583 h 1.64101 v 1.64101 h -1.64101 z m -40.8429,0 h 1.73217 v 1.64101 h -1.73217 z m 14.03974,0 h 11.48707 v 1.64101 h -11.48707 z m -4.01136,0 h 1.73218 v 1.64101 h -1.73218 z m 63.17887,0 h 1.73218 v 1.64101 h -1.73218 z m -68.01073,0 h 1.73218 v 1.64101 h -1.73218 z m 30.44985,0 h 1.641 v 1.64101 h -1.641 z m -8.38739,0 h 1.64101 v 1.64101 h -1.64101 z m 50.78013,1.27634 h 1.64101 v 0.82051 h -1.64101 z m -82.2328,0 h 1.73217 v 0.82051 h -1.73217 z m 68.01072,0 h 6.92871 v 0.82051 h -6.92871 z m -22.97413,0.36467 h 1.64101 v 0.8205 h -1.64101 z m -35.64638,0 h 1.73218 v 0.8205 h -1.73218 z m -14.40441,-0.36467 h 3.28202 v 1.73218 h -3.28202 z m 36.46687,0.36467 h 1.64101 v 1.73217 h -1.64101 z m -17.2306,0 h 1.73218 v 1.73217 h -1.73218 z m 25.61799,0 h 1.641 v 1.73217 h -1.641 z m 37.56088,0 h 1.73218 v 2.09684 h -1.73218 z m -82.41514,1.36751 h 3.28202 v 0.72933 h -3.28202 z m 53.42397,-1.73218 h 1.73218 v 3.00852 h -1.73218 z m -44.21608,0.36467 h 1.73217 v 2.64385 h -1.73217 z m 59.98801,-0.36467 h 1.73217 v 3.00852 h -1.73217 z m -69.1959,2.46151 h 6.74637 v 0.91168 h -6.74637 z m 17.86877,-0.36467 h 3.09968 v 1.73218 h -3.09968 z m 18.5981,0 h 10.02839 v 1.73218 h -10.02839 z m 45.94827,0.36467 h 8.11388 v 1.73219 h -8.11388 z m -82.41514,0.91168 h 6.74637 v 0.82051 h -6.74637 z m 56.79716,-0.36467 h 10.30189 v 1.73218 H 218.801 Z m -5.74353,0 h 4.10252 v 1.73218 h -4.10252 z m -41.84574,0 h 3.09968 v 1.73218 h -3.09968 z m 59.98801,0 h 7.11104 v 1.73218 h -7.11104 z m -41.20757,0 h 1.73217 v 1.73218 h -1.73217 z m 64.4552,-3.00852 h 1.64101 v 5.10536 h -1.64101 z m -41.3899,4.7407 h 1.641 v 1.18517 h -1.641 z m -23.0653,0 h 1.73217 v 1.18517 h -1.73217 z m 50.59778,-1.73218 h 1.73219 v 2.91735 h -1.73219 z m -45.58359,-2.64385 h 1.73218 v 5.5612 h -1.73218 z m 55.79432,3.82903 h 1.73218 v 2.188 h -1.73218 z m -83.78264,0 h 1.73217 v 2.188 h -1.73217 z m 87.42933,0.91166 h 2.27918 v 1.73218 h -2.27918 z m -71.01924,0.82051 h 9.93722 v 1.641 h -9.93722 z m 11.57823,0 h 3.09968 v 1.641 h -3.09968 z m 45.58359,0 h 2.37036 v 1.641 h -2.37036 z m -40.5694,0 h 14.67792 v 1.641 h -14.67792 z m 22.2448,0.45583 h 1.64101 v 1.73218 h -1.64101 z m -55.24731,0 h 3.73785 v 1.73218 h -3.73785 z m 82.77981,0 h 2.73501 v 1.73218 h -2.73501 z m -18.41578,0 h 1.73218 v 1.73218 h -1.73218 z m -9.11672,1.73218 h 1.64101 v 1.18517 h -1.64101 z m -53.24164,0 h 1.73218 v 1.18517 h -1.73218 z m 58.43817,-3.37318 h 1.64101 v 4.55835 h -1.64101 z m -8.66088,0 h 1.73217 v 4.55835 H 218.801 Z m 17.77761,0 h 1.73217 v 4.55835 h -1.73217 z m -36.55806,2.82617 h 1.73218 v 1.73218 h -1.73218 z m -8.38738,0 h 1.73218 v 1.73218 h -1.73218 z m -8.20504,0 h 1.73217 v 1.73218 h -1.73217 z m 67.37255,0.54701 h 1.73218 v 1.18517 h -1.73218 z m -19.41861,0 h 1.73218 v 1.18517 h -1.73218 z m -55.06498,1.18517 h 1.73217 v 0.45584 h -1.73217 z m 28.44416,0 h 1.64101 v 0.45584 h -1.64101 z m -0.91167,0.45584 h 2.55268 v 0.36467 h -2.55268 z m -34.82587,-0.45584 h 1.82335 v 0.82051 h -1.82335 z m 72.20442,-1.73218 h 1.73218 v 2.55269 h -1.73218 z m -78.76845,-1.18517 h 1.64101 v 3.73786 h -1.64101 z m 88.341,2.91735 h 2.18802 v 0.82051 h -2.18802 z m -14.22207,0 h 2.64384 v 0.82051 h -2.64384 z m -44.94544,0 h 3.00852 v 0.82051 h -3.00852 z m -8.29621,0 h 1.82334 v 0.82051 h -1.82334 z m 48.04511,0 h 3.00852 v 0.82051 h -3.00852 z m -3.92019,0 h 2.18801 v 0.82051 h -2.18801 z m -5.19653,0 h 2.55269 v 0.82051 h -2.55269 z m 22.97413,0.45584 h 1.64101 v 0.36467 h -1.64101 z m -69.01356,0 h 1.82334 v 0.36467 h -1.82334 z m 42.11924,-0.45584 h 2.18801 v 0.82051 h -2.18801 z m -8.84322,0 h 1.73218 v 0.82051 h -1.73218 z m -9.57255,0 h 1.82334 v 0.82051 h -1.82334 z m -11.76057,0 h 1.64101 v 0.82051 h -1.64101 z m 15.68076,0.82051 h 2.55268 v 1.36751 h -2.55268 z m 37.37855,0 h 7.74921 v 1.36751 h -7.74921 z m -65.00221,0 h 1.82334 v 1.64101 h -1.82334 z m 7.11104,0 h 1.82334 v 1.64101 h -1.82334 z m 26.07381,0 h 1.82335 v 1.64101 h -1.82335 z m -17.7776,0 h 3.00852 v 1.64101 h -3.00852 z m -3.64668,0 h 1.82334 v 1.64101 h -1.82334 z m 11.9429,0 h 1.82334 v 1.64101 h -1.82334 z m 18.41577,0 h 2.18801 v 1.64101 h -2.18801 z m -13.58391,1.36751 h 1.64101 v 0.2735 h -1.64101 z m -35.73754,-1.36751 h 1.82335 v 1.64101 h -1.82335 z m 72.20442,1.36751 h 7.74921 v 0.2735 h -7.74921 z m -18.96278,-1.36751 h 2.55269 v 1.64101 h -2.55269 z m 28.53533,0 h 2.18802 v 1.64101 h -2.18802 z m -19.41861,0 h 3.00852 v 1.64101 h -3.00852 z m -68.92239,0 h 4.37602 v 1.64101 h -4.37602 z m 74.11893,0 h 2.64384 v 1.64101 h -2.64384 z m -9.11673,0 h 2.18801 v 1.64101 h -2.18801 z m -51.14479,1.64101 h 1.73217 v 0.8205 h -1.73217 z m 46.76876,0 h 1.73219 v 0.8205 h -1.73219 z m -35.09936,0 h 1.82334 v 0.8205 h -1.82334 z m -18.96278,0 h 1.82335 v 0.8205 h -1.82335 z m 14.31325,0 h 1.73218 v 0.8205 h -1.73218 z m 35.0082,0 h 1.64101 v 0.8205 h -1.64101 z m -18.41577,0 h 1.73218 v 0.8205 h -1.73218 z m 9.48138,0 h 1.82335 v 0.8205 h -1.82335 z m 27.16784,0 h 2.64384 v 0.8205 h -2.64384 z m -8.6609,0 h 1.73218 v 0.8205 h -1.73218 z m -23.15646,0 h 1.64101 v 0.8205 h -1.64101 z m -11.85174,0 h 1.73218 v 0.8205 h -1.73218 z m 39.84007,0 h 1.64101 v 0.8205 h -1.64101 z m 18.0511,0 h 2.18802 v 0.8205 h -2.18802 z m 0,0.8205 h 1.73218 v 1.09401 h -1.73218 z m -81.77697,0 h 1.73218 v 1.09401 h -1.73218 z m 27.44133,-5.0142 h 1.641 v 6.92871 h -1.641 z m -8.47855,5.0142 h 1.73217 v 1.91451 h -1.73217 z m 48.59212,0 h 1.73217 v 1.91451 h -1.73217 z m -56.706,-8.75205 h 1.641 v 10.66656 h -1.641 z m 29.53816,8.75205 h 1.73218 v 1.91451 h -1.73218 z m 45.58361,-5.74353 h 1.73217 v 7.65804 h -1.73217 z m -41.93691,0.72933 h 1.641 v 6.92871 h -1.641 z m 32.18201,6.10821 h 7.29338 v 1.73218 h -7.29338 z m -82.41514,0 h 7.93155 v 1.73218 h -7.93155 z m 22.60947,0.8205 h 4.28485 v 1.73219 h -4.28485 z m 27.62366,0 h 4.83186 v 1.73219 h -4.83186 z m -33.18486,0 h 3.09968 v 1.73219 h -3.09968 z m 16.59243,0 h 14.67791 v 1.73219 h -14.67791 z m 57.98233,0 h 2.27918 v 1.73219 h -2.27918 z m -24.4328,0 h 8.29621 v 1.73219 h -8.29621 z m -67.19023,0.91168 h 1.73218 v 0.91167 h -1.73218 z m 22.60947,0.82051 h 1.73218 v 0.36466 h -1.73218 z m -22.97413,0.0912 h 2.09684 v 0.2735 h -2.09684 z m 18.78043,-0.0912 h 1.73218 v 1.27634 h -1.73218 z m -8.56971,-11.48707 h 1.64101 v 12.76341 h -1.64101 z m 43.57791,11.48707 h 1.64102 v 1.27634 h -1.64102 z m -53.78863,0.36466 h 2.09684 v 0.91168 h -2.09684 z m 34.00536,-0.36466 h 1.641 v 1.641 h -1.641 z m 48.77444,-0.82051 h 1.64101 v 2.46151 h -1.64101 z m -15.22491,0.82051 h 1.73217 v 1.641 h -1.73217 z m 19.23627,0.91166 h 1.64101 v 0.72934 h -1.64101 z m -72.84259,0 h 1.73218 v 0.72934 h -1.73218 z m -9.39021,0 h 1.73217 v 0.72934 h -1.73217 z m 87.42933,-0.91166 h 1.64101 v 1.641 h -1.64101 z m -91.98769,1.27634 h 2.09684 v 0.8205 h -2.09684 z m 22.97413,-0.91168 h 1.73218 v 1.73218 h -1.73218 z m -22.97413,1.73218 h 2.09684 v 0.91167 h -2.09684 z m 18.78043,-0.8205 h 1.73218 v 1.73217 h -1.73218 z m 35.0082,0 h 1.64102 v 1.73217 h -1.64102 z m -45.85709,0 h 3.92019 v 1.73217 h -3.92019 z m -3.37318,0.36466 h 1.73217 v 1.73217 h -1.73217 z m 85.60599,0 h 3.46435 v 1.73217 h -3.46435 z m -46.58644,0 h 8.47855 v 1.73217 h -8.47855 z m 14.22208,0 h 11.48707 v 1.73217 h -11.48707 z m 13.94858,0 h 3.28202 v 1.73217 h -3.28202 z m 5.19653,0 h 7.47571 v 1.73217 h -7.47571 z m -62.99653,0 h 1.73218 v 1.73217 h -1.73218 z m 13.03691,0 h 8.66088 v 1.73217 h -8.66088 z m 59.80568,0 h 1.64101 v 1.73217 h -1.64101 z m -33.00253,1.36751 h 1.64102 v 0.72934 h -1.64102 z m -35.0082,0 h 1.73218 v 0.72934 h -1.73218 z m -18.78043,0 h 2.09684 v 0.72934 h -2.09684 z m 13.94857,0.36466 h 1.73218 v 2.09686 h -1.73218 z m 57.8,0 h 3.28202 v 2.09686 h -3.28202 z m 15.04259,0 h 1.64101 v 2.09686 h -1.64101 z m -82.2328,0 h 1.73217 v 2.09686 h -1.73217 z m 39.01955,0 h 8.47855 v 2.09686 h -8.47855 z m -45.03659,2.09686 h 96.54605 V 223.9 H 161.001 Z m 0,0 M 92.024851,195 h 68.976429 v 1.71945 H 92.024851 Z m 60.246909,1.71945 h 1.71945 v 2.11624 h -1.71945 z m -14.81373,0 h 6.94394 v 2.11624 h -6.94394 z m -25.19657,0 h 1.71946 v 2.11624 h -1.71946 z m -14.152399,0 h 1.653318 v 2.11624 h -1.653318 z m 48.541419,2.11624 h 3.30664 v 1.65333 h -3.30664 z m -48.541419,0 h 1.653318 v 1.65333 h -1.653318 z m -5.026087,0 h 3.306637 v 1.65333 h -3.306637 z m 59.188786,0 h 1.71945 v 1.65333 h -1.71945 z m -45.56545,0 h 3.24051 v 1.65333 h -3.24051 z m 5.55515,0 h 1.71946 v 1.65333 h -1.71946 z m 15.40892,0 h 8.13433 v 1.65333 h -8.13433 z m 27.97415,0 h 4.49702 v 1.65333 h -4.49702 z m -54.1627,0 h 3.30663 v 1.65333 h -3.30663 z m 35.9762,0 h 6.94394 v 1.65333 h -6.94394 z m 0,1.65333 h 6.94394 v 0.85972 h -6.94394 z m -39.348969,0 h 1.653318 v 0.85972 h -1.653318 z m 54.162699,0 h 1.71945 v 0.85972 h -1.71945 z m -40.0103,0 h 1.71946 v 1.71944 h -1.71946 z m -19.178486,0 h 3.306637 v 1.71944 h -3.306637 z m 62.561556,0 h 4.49702 v 1.71944 h -4.49702 z m -54.1627,0 h 3.30663 v 1.71944 h -3.30663 z m 5.22448,0 h 3.24051 v 1.71944 h -3.24051 z m -13.623336,1.71944 h 3.306637 v 0.7936 h -3.306637 z m 41.002286,-1.71944 h 1.71945 v 3.0421 h -1.71945 z m -41.002286,2.51304 h 6.679405 v 0.92586 h -6.679405 z m 19.178486,-0.7936 h 1.71946 v 1.71946 h -1.71946 z m -10.77963,0 h 3.30663 v 1.71946 h -3.30663 z m 54.1627,0 h 4.49702 v 1.71946 h -4.49702 z m -48.93822,0 h 3.24051 v 1.71946 h -3.24051 z m 5.55515,1.71946 h 1.71946 v 0.79359 h -1.71946 z m -19.178486,0 h 6.679405 v 0.79359 h -6.679405 z m 45.962236,-0.3968 h 11.3087 v 1.71945 h -11.3087 z m 16.59932,0.3968 h 4.49702 v 1.32265 h -4.49702 z m -54.1627,0 h 3.30663 v 1.32265 h -3.30663 z m 15.01213,-0.3968 h 15.87185 v 1.71945 h -15.87185 z m 17.5913,0 h 2.51304 v 1.71945 h -2.51304 z m 0.79359,1.71945 h 1.71945 v 1.65332 h -1.71945 z m -36.769789,-0.52906 h 1.653318 v 2.18238 h -1.653318 z m 50.591529,0.52906 h 1.65332 v 1.65332 h -1.65332 z m -41.20069,-1.32265 h 1.65333 v 2.97597 h -1.65333 z m -9.390839,2.97597 h 1.851718 v 1.71945 h -1.851718 z m 45.962239,0 h 1.91785 v 1.71945 h -1.91785 z m -36.5714,0 h 6.48102 v 1.71945 h -6.48102 z m 27.37895,0 h 1.91785 v 1.71945 h -1.91785 z m 13.82174,0 h 7.8698 v 1.71945 h -7.8698 z m -23.01418,0 h 1.91785 v 1.71945 h -1.91785 z m -27.577349,1.71945 h 1.851718 v 1.19039 h -1.851718 z m 14.152399,0 h 1.71946 v 1.19039 h -1.71946 z m 42.58948,0 h 1.71945 v 1.19039 h -1.71945 z m -15.80573,-3.37277 h 1.71946 v 4.56316 h -1.71946 z m -45.565443,1.65332 h 1.719454 v 2.90984 h -1.719454 z m 32.206643,1.71945 h 1.91785 v 1.71945 h -1.91785 z m 23.01418,1.71945 h 1.65332 v 0.26454 h -1.65332 z m -9.72151,-0.52906 h 1.78559 v 0.7936 h -1.78559 z m 5.09222,-1.19039 h 1.71946 v 1.98399 h -1.71946 z m -50.591533,1.19039 h 1.785581 v 0.7936 h -1.785581 z m 61.371173,0 h 1.85171 v 0.7936 h -1.85171 z m -56.741879,0 h 3.769559 v 0.7936 h -3.769559 z m 14.152399,0 h 3.8357 v 0.7936 h -3.8357 z m 18.3849,-4.56316 h 1.71945 v 5.35676 h -1.71945 z m -23.47712,5.09222 h 3.30664 v 0.26454 h -3.30664 z m 17.19451,0 h 3.30663 v 0.26454 h -3.30663 z m -6.481,-5.09222 h 1.71944 v 5.35676 h -1.71944 z m -24.402983,5.35676 h 1.785581 v 1.38878 h -1.785581 z m 61.371173,0 h 1.85171 v 1.71944 h -1.85171 z m -36.96819,0 h 4.36475 v 1.71944 h -4.36475 z m 11.90388,0 h 3.30664 v 1.71944 h -3.30664 z m -22.61739,0 h 3.30664 v 1.71944 h -3.30664 z m 36.1746,0 h 3.30664 v 1.71944 h -3.30664 z m -45.234779,0 h 3.769559 v 1.71944 h -3.769559 z m 40.870019,0 h 1.78559 v 1.71944 h -1.78559 z m -14.61533,0 h 3.30663 v 1.71944 h -3.30663 z m -12.10229,0 h 3.8357 v 1.71944 h -3.8357 z m -18.649424,1.38878 h 1.653312 v 0.33066 h -1.653312 z m 55.088554,-1.38878 h 3.37277 v 1.71944 h -3.37277 z m 6.28262,1.71944 h 1.71944 v 0.7936 h -1.71944 z m -61.371174,0 h 1.653312 v 0.7936 h -1.653312 z m 4.497025,0 h 3.769559 v 0.7936 h -3.769559 z m 14.152399,0 h 3.8357 v 0.7936 h -3.8357 z m 26.71762,0 h 1.78559 v 0.7936 h -1.78559 z m -26.71762,0.7936 h 1.71946 v 1.12425 h -1.71946 z m 22.61739,-4.49703 h 1.71945 v 5.62128 h -1.71945 z m 4.16636,4.49703 h 1.71946 v 1.12425 h -1.71946 z m -40.936149,0 h 1.653318 v 1.91785 h -1.653318 z m 40.936149,1.12425 h 6.15035 v 0.7936 h -6.15035 z m -15.93798,0 h 13.49107 v 1.65332 h -13.49107 z m 15.93798,0.7936 h 6.15035 v 0.85972 h -6.15035 z m -31.54531,-0.7936 h 6.48102 v 1.65332 h -6.48102 z m -13.623333,0.7936 h 5.885812 v 1.65331 h -5.885812 z m 48.012353,0.85972 h 3.30664 v 0.79359 h -3.30664 z m 16.59932,-10.64737 h 1.65331 v 11.83776 h -1.65331 z m -56.21282,11.57323 h 2.31464 v 0.26453 h -2.31464 z m 15.60733,-4.49703 h 1.71944 v 4.76156 h -1.71944 z m -10.38285,3.57117 h 1.65333 v 2.11625 h -1.65333 z m 15.60733,0 h 1.65332 v 2.11625 h -1.65332 z m -20.83181,1.19039 h 2.31464 v 0.92586 h -2.31464 z m -8.398853,-0.3968 h 1.719447 v 1.32266 h -1.719447 z m 48.012353,0 h 3.30664 v 1.71945 h -3.30664 z m 13.75561,0.3968 h 4.49702 v 1.32265 h -4.49702 z m -18.1865,0.52906 h 1.71945 v 0.79359 h -1.71945 z m 14.81373,0 h 1.71945 v 0.79359 h -1.71945 z m -35.7778,-0.52906 h 3.10823 v 1.71945 h -3.10823 z m 32.20663,-4.76156 h 1.65332 v 6.48101 h -1.65332 z m -25.59336,5.68742 h 1.65332 v 1.71945 h -1.65332 z m -15.60733,0 h 1.65333 v 1.71945 h -1.65333 z m -5.22448,0 h 2.31464 v 1.71945 h -2.31464 z m -8.398853,0 h 1.719447 v 1.71945 h -1.719447 z m 17.591303,0.39679 h 3.30664 v 1.71945 h -3.30664 z m 30.42105,0 h 3.30664 v 1.71945 h -3.30664 z m -44.639579,0 h 3.306629 v 1.71945 h -3.306629 z m 40.208689,0 h 1.71945 v 1.71945 h -1.71945 z m 14.81373,0 h 1.71945 v 1.71945 h -1.71945 z m 3.37277,0 h 4.49702 v 1.71945 h -4.49702 z m -48.14463,1.32266 h 1.65333 v 0.79359 h -1.65333 z m -5.22448,0 h 2.31464 v 0.79359 h -2.31464 z m -8.398853,0 h 1.719447 v 0.79359 h -1.719447 z m 29.230663,0 h 1.65332 v 0.79359 h -1.65332 z m -11.63936,0.39679 h 3.30664 v 2.11625 h -3.30664 z m 40.80389,0 h 1.71945 v 2.11625 h -1.71945 z m -55.022419,0 h 3.306629 v 2.11625 h -3.306629 z m 40.208689,0 h 1.71945 v 2.11625 h -1.71945 z m -45.433179,2.11625 H 161.00128 V 223.9 H 92.024851 Z m 0,0 M 50.587351,195 h 41.4375 v 1.7 h -41.4375 z m 37.484999,1.7 h 1.700002 v 2.0825 H 88.07235 Z m -10.199998,0 h 3.272499 v 2.0825 h -3.272499 z m -17.425001,0 h 3.2725 v 2.0825 h -3.2725 z m -9.010001,2.0825 h 3.485001 v 1.7 H 51.43735 Z m 9.010001,0 h 3.2725 v 1.7 h -3.2725 z m 17.425001,0 h 3.272499 v 1.7 h -3.272499 z m 10.199998,0 h 1.700002 v 1.7 H 88.07235 Z m -5.014999,0 h 3.315 v 1.7 h -3.315 z m -14.195,0 h 3.2725 v 1.7 h -3.2725 z m 0,1.7 h 3.2725 v 1.7 h -3.2725 z m 14.195,0 h 3.315 v 1.7 h -3.315 z m -5.184999,0 h 3.272499 v 1.7 h -3.272499 z m 10.199998,0 h 1.700002 v 1.7 H 88.07235 Z m -36.635,0 h 3.485001 v 1.7 H 51.43735 Z m 0,1.7 h 20.697501 v 1.7 H 51.43735 Z m 26.435002,0 h 3.272499 v 1.7 h -3.272499 z m 5.184999,0 h 3.315 v 1.7 h -3.315 z m 5.014999,0 h 1.700002 v 1.7 H 88.07235 Z m -5.014999,1.7 h 3.315 v 1.7 h -3.315 z m 5.014999,0 h 1.700002 v 1.7 H 88.07235 Z m 0,1.7 h 1.700002 v 1.7 H 88.07235 Z m -5.014999,0 h 3.315 v 1.7 h -3.315 z m -26.435,0 h 20.145 v 1.7 h -20.145 z m 31.449999,1.7 h 1.700002 V 208.09 H 88.07235 Z m -13.004999,0 h 1.7 v 2.5075 h -1.7 z m -18.445,0 h 1.7 v 2.5075 h -1.7 z m 12.92,2.5075 h 1.7 v 0.51 h -1.7 z m -8.415,0 h 1.7 v 0.51 h -1.7 z m 8.415,0.51 h 2.5925 v 0.2975 h -2.5925 z m 5.525,-0.51 h 2.5925 v 0.8075 h -2.5925 z m 5.695,0 h 1.700001 v 0.8075 h -1.700001 z m -25.84,0 h 3.4 v 0.8075 h -3.4 z m 6.205,0.51 h 6.4175 v 0.2975 h -6.4175 z m 13.94,0.2975 h 2.5925 V 212 h -2.5925 z m -20.145,0 h 3.4 V 212 h -3.4 z m 6.205,0 h 6.4175 V 212 h -6.4175 z m 8.415,0 h 2.5925 V 212 h -2.5925 z m 6.4175,1.4025 h 1.7 v 0.2975 h -1.7 z m -6.4175,0 h 1.7 v 0.2975 h -1.7 z m 10.115001,-1.4025 h 2.805 v 1.7 h -2.805 z M 54.922351,212 h 3.1025 v 0.2975 h -3.1025 z m 6.205,0 h 1.7 v 0.2975 h -1.7 z m 8.415,0.2975 h 1.7 v 0.8075 h -1.7 z m -8.415,0 h 1.7 v 0.8075 h -1.7 z m 18.530001,0 h 2.805 v 0.8075 h -2.805 z m -3.697501,0 h 1.7 v 0.8075 h -1.7 z m -21.0375,0 h 3.1025 v 0.8075 h -3.1025 z m -3.485001,-8.415 h 1.700001 v 11.135 H 51.43735 Z m 33.235001,3.4 h 1.7 v 7.735 h -1.7 z m 3.399999,6.9275 h 1.700002 v 0.8075 H 88.07235 Z m -8.414998,-1.105 h 1.699999 v 1.9125 h -1.699999 z m 3.399999,1.9125 h 3.315 v 1.7 h -3.315 z m -31.620001,0 h 29.920001 v 1.7 H 51.43735 Z m 36.635,0 h 1.700002 v 1.7 H 88.07235 Z m -19.209999,1.7 h 3.2725 v 1.7 h -3.2725 z m 19.209999,0 h 1.700002 v 1.7 H 88.07235 Z m -5.014999,0 h 3.315 v 1.7 h -3.315 z m -31.620001,0 h 3.485001 v 1.7 H 51.43735 Z m 31.620001,1.7 h 3.315 v 1.7 h -3.315 z m -5.184999,0 h 3.272499 v 1.7 h -3.272499 z m -9.010001,0 h 3.2725 v 1.7 h -3.2725 z m -8.415,0 h 3.2725 v 1.7 h -3.2725 z m -9.010001,0 h 3.485001 v 1.7 H 51.43735 Z m 36.635,0 h 1.700002 v 1.7 H 88.07235 Z m 0,1.7 h 1.700002 V 222.2 H 88.07235 Z m -10.199998,0 h 3.272499 V 222.2 h -3.272499 z m -17.425001,0 h 3.2725 V 222.2 h -3.2725 z m -9.86,2.0825 h 41.4375 v 1.7 h -41.4375 z m 0,0 M 0,195 h 50.587351 v 1.67965 H 0 Z m 22.724787,1.67965 h 1.72906 v 2.12428 h -1.72906 z m -17.5870096,0 h 3.309915 v 2.12428 h -3.309915 z m 8.3982906,0 h 3.309915 v 2.12428 h -3.309915 z m 4.989573,1.72906 h 1.72906 v 0.79043 h -1.72906 z m -17.587009,0 h 2.5194884 v 0.79043 H 0.938632 Z m 4.1991454,0.39522 h 3.309915 v 1.67965 h -3.309915 z m 17.5870096,0 h 1.72906 v 1.67965 h -1.72906 z m 4.396752,0 h 22.52718 v 1.67965 h -22.52718 z m -13.585471,0 h 3.309915 v 1.67965 h -3.309915 z m -12.597436,0.39521 h 2.5194884 v 1.67966 H 0.938632 Z m 17.587009,0 h 1.72906 v 1.67966 h -1.72906 z m 4.199146,1.28444 h 1.72906 v 0.83984 h -1.72906 z M 0.938632,200.8788 h 2.5194884 v 0.83983 H 0.938632 Z m 17.587009,0 h 1.72906 v 2.12428 h -1.72906 z m 9.435727,1.33384 h 15.561539 v 0.79044 H 27.961368 Z m -9.435727,0.79044 h 24.997266 v 0.88923 H 18.525641 Z m -9.1887176,0 h 6.7186326 v 1.67965 H 9.3369234 Z m 9.1887176,0.88923 h 11.115385 v 0.79042 H 18.525641 Z m 28.801197,-3.40873 h 2.321881 v 4.74257 h -2.321881 z m -46.388206,1.23505 h 1.6796584 v 4.69316 H 0.938632 Z m 30.382053,3.90274 h 3.309914 v 0.79042 h -3.309914 z m -16.994189,-0.93864 h 1.72906 v 1.72906 h -1.72906 z m 0,1.72906 h 20.304103 v 0.88923 H 14.326496 Z m 0,0.88923 h 20.304103 v 0.79043 H 14.326496 Z M 0.938632,206.41179 H 11.85641 v 1.67966 H 0.938632 Z m 9.188718,1.67966 h 1.72906 v 1.72906 h -1.72906 z m 32.703933,-1.18564 h 1.926667 v 2.9147 h -1.926667 z m -38.3851296,2.9147 h 1.679659 v 0.49401 h -1.679659 z m 0,0.49401 h 3.408718 v 0.29642 h -3.408718 z m 38.0887196,-0.49401 h 2.223077 v 0.79043 h -2.223077 z m -32.407523,0 h 5.928206 v 0.79043 H 10.12735 Z m 14.326497,0.49401 h 10.868377 v 0.29642 H 24.453847 Z m -14.326497,0.29642 h 9.435727 v 0.88923 H 10.12735 Z m 32.407523,0 h 2.223077 v 1.38325 h -2.223077 z m -28.208377,0.88923 h 5.236581 v 0.79042 h -5.236581 z m 28.208377,0.49402 h 1.729061 v 0.2964 H 42.534873 Z M 4.4461534,210.61094 h 3.408718 v 1.67965 h -3.408718 z m 20.0076936,0 h 10.868377 v 1.67965 H 24.453847 Z m 18.081026,1.67965 h 1.729061 v 0.79043 h -1.729061 z m -38.0887196,0 h 3.408718 v 0.79043 h -3.408718 z m 5.6811966,1.08684 h 2.321881 v 0.34582 H 10.12735 Z m 0,0.34582 h 2.321881 v 1.28444 H 10.12735 Z m 4.199146,0.49401 h 1.72906 v 0.79043 h -1.72906 z m 4.199145,0 h 16.104958 v 0.79043 H 18.525641 Z m 19.612481,-0.49401 h 1.926666 v 1.28444 h -1.926666 z m 0,1.28444 h 5.384785 v 0.39521 H 38.138122 Z M 5.9282054,213.08102 h 1.926666 v 2.32188 h -1.926666 z m 12.5974356,1.92667 h 16.104958 v 0.88923 H 18.525641 Z m -8.398291,0 h 2.321881 v 1.67966 H 10.12735 Z m 28.010772,0.39521 h 5.384785 v 1.28445 h -5.384785 z m -6.817437,0.49402 h 3.309914 v 0.79043 h -3.309914 z m -16.994189,-0.88923 h 1.72906 v 1.67966 h -1.72906 z M 0.938632,208.09145 h 1.6796584 v 9.08992 H 0.938632 Z m 9.188718,8.5959 h 2.321881 v 0.79042 H 10.12735 Z m -9.188718,0.49402 h 2.5194884 v 0.83983 H 0.938632 Z m 17.587009,-1.28445 h 1.72906 v 2.12428 h -1.72906 z m 29.394018,-10.67077 h 1.72906 v 13.19026 h -1.72906 z m -33.593163,11.4612 h 1.72906 v 1.72906 h -1.72906 z m -8.3982906,0.93863 h 1.72906 v 0.79043 h -1.72906 z m 16.7965816,0 h 1.72906 v 0.79043 h -1.72906 z M 0.938632,218.0212 h 2.5194884 v 1.67965 H 0.938632 Z m 17.587009,0 h 1.72906 v 1.67965 h -1.72906 z m 4.199146,0.39521 h 1.72906 v 1.67966 h -1.72906 z m -16.7965816,0 h 1.72906 v 1.67966 h -1.72906 z m 8.3982906,0 h 1.72906 v 1.67966 h -1.72906 z m 12.795043,0 h 22.52718 v 1.67966 h -22.52718 z m -8.595898,1.28444 h 1.72906 v 0.79043 h -1.72906 z m -17.587009,0 h 2.5194884 v 0.79043 H 0.938632 Z m 4.9895734,0.39522 h 1.72906 v 2.12427 h -1.72906 z m 16.7965816,0 h 1.72906 v 2.12427 h -1.72906 z m -8.398291,0 h 1.72906 v 2.12427 h -1.72906 z M 0,222.22034 H 50.587351 V 223.9 H 0 Z m 0,0" />
  </g>
</svg>
