<?xml version="1.0" encoding="UTF-8" standalone="no"?>
<!-- Created with Inkscape (http://www.inkscape.org/) -->

<svg
   width="170.58736mm"
   height="118.90001mm"
   viewBox="0 0 170.58736 118.90001"
   version="1.1"
   id="svg1"
   xmlns="http://www.w3.org/2000/svg"
   xmlns:svg="http://www.w3.org/2000/svg">
  <defs
     id="defs1">
    <marker
       style="overflow:visible"
       id="ArrowWide"
       refX="0"
       refY="0"
       orient="auto-start-reverse"
       markerWidth="1"
       markerHeight="1"
       viewBox="0 0 1 1"
       preserveAspectRatio="xMidYMid">
      <path
         style="fill:none;stroke:context-stroke;stroke-width:1;stroke-linecap:butt"
         d="M 3,-3 0,0 3,3"
         transform="rotate(180,0.125,0)"
         id="path13" />
    </marker>
  </defs>
  <g
     id="layer1">
    <g
       id="g33"
       transform="matrix(1.0000046,0,0,1,79.999863,60.000147)"
       style="stroke-width:0.999998">
      <g
         id="g34">
        <path
           clip-rule="nonzero"
           d="M 0,0 H 50.58735 V 1.679658 H 0 Z M 1.729059,5.088376 H 3.45812 v 1.72906 H 1.729059 Z m 41.991454,0 h 1.729059 v 1.72906 h -1.729059 z m -4.199147,0 h 1.729061 v 1.72906 h -1.729061 z m -4.199144,0 h 1.72906 v 1.72906 h -1.72906 z m -4.199145,0 h 1.729059 v 1.72906 h -1.729059 z m -4.199146,0 h 1.72906 v 1.72906 h -1.72906 z m -4.199145,0 h 1.72906 v 1.72906 h -1.72906 z m -4.199145,0 h 1.72906 v 1.72906 h -1.72906 z m -4.199145,0 h 1.729059 v 1.72906 h -1.729059 z m -8.398291,0 h 1.72906 v 1.72906 H 5.928205 Z M 1.729059,8.497094 H 3.45812 v 1.729059 H 1.729059 Z m 41.991454,0 h 1.729059 v 1.729059 h -1.729059 z m -4.199147,0 h 1.729061 v 1.729059 h -1.729061 z m -4.199144,0 h 1.72906 v 1.729059 h -1.72906 z m -4.199145,0 h 1.729059 v 1.729059 h -1.729059 z m -4.199146,0 h 1.72906 v 1.729059 h -1.72906 z m -4.199145,0 h 1.72906 v 1.729059 h -1.72906 z m -4.199145,0 h 1.72906 v 1.729059 h -1.72906 z m -4.199145,0 h 1.729059 v 1.729059 h -1.729059 z m -4.199146,0 h 1.72906 v 1.729059 H 10.12735 Z M 1.729059,11.905812 H 3.45812 V 13.58547 H 1.729059 Z m 41.991454,0 h 1.729059 v 1.679658 h -1.729059 z m -4.199147,0 h 1.729061 v 1.679658 h -1.729061 z m -8.398289,0 h 1.729059 v 1.679658 h -1.729059 z m -4.199146,0 h 1.72906 v 1.679658 h -1.72906 z m -4.199145,0 h 1.72906 v 1.679658 h -1.72906 z m -4.199145,0 h 1.72906 v 1.679658 h -1.72906 z m -4.199145,0 h 1.729059 v 1.679658 h -1.729059 z m -4.199146,0 h 1.72906 v 1.679658 h -1.72906 z m -4.199145,0 h 1.72906 V 13.58547 H 5.928205 Z M 1.729059,15.31453 H 3.45812 v 1.679658 H 1.729059 Z m 41.991454,0 h 1.729059 v 1.679658 h -1.729059 z m -2.074872,0 h 1.679658 v 1.679658 h -1.679658 z m -2.124275,0 h 1.729061 v 1.679658 h -1.729061 z m -6.274017,0 h 1.679658 v 1.679658 h -1.679658 z m -4.199144,0 h 1.679657 v 1.679658 h -1.679657 z m -4.199146,0 h 1.679659 v 1.679658 h -1.679659 z m -6.323418,0 h 1.72906 v 1.679658 h -1.72906 z m -2.074872,0 h 1.679658 v 1.679658 h -1.679658 z m -2.124273,0 h 1.729059 v 1.679658 h -1.729059 z m -4.199146,0 h 1.72906 v 1.679658 h -1.72906 z m -4.199145,0 h 1.72906 v 1.679658 h -1.72906 z m -2.074871,0 h 1.679657 v 1.679658 H 3.853334 Z M 1.729059,18.723247 H 3.45812 v 1.67966 H 1.729059 Z m 41.991454,0 h 1.729059 v 1.67966 h -1.729059 z m -4.199147,0 h 1.729061 v 1.67966 h -1.729061 z m -4.199144,0 h 1.72906 v 1.67966 h -1.72906 z m -4.199145,0 h 1.729059 v 1.67966 h -1.729059 z m -4.199146,0 h 1.72906 v 1.67966 h -1.72906 z m -4.199145,0 h 1.72906 v 1.67966 h -1.72906 z m -4.199145,0 h 1.72906 v 1.67966 h -1.72906 z m -4.199145,0 h 1.729059 v 1.67966 h -1.729059 z m -4.199146,0 h 1.72906 v 1.67966 h -1.72906 z m -4.199145,0 h 1.72906 v 1.67966 H 5.928205 Z M 1.729059,22.082564 H 3.45812 v 1.72906 H 1.729059 Z m 41.991454,0 h 1.729059 v 1.72906 h -1.729059 z m -4.199147,0 h 1.729061 v 1.72906 h -1.729061 z m -4.199144,0 h 1.72906 v 1.72906 h -1.72906 z m -4.199145,0 h 1.729059 v 1.72906 h -1.729059 z m -4.199146,0 h 1.72906 v 1.72906 h -1.72906 z m -4.199145,0 h 1.72906 v 1.72906 h -1.72906 z m -4.199145,0 h 1.72906 v 1.72906 h -1.72906 z m -4.199145,0 h 1.729059 v 1.72906 h -1.729059 z m -8.398291,0 h 1.72906 v 1.72906 H 5.928205 Z M 0,27.220342 H 50.58735 V 28.9 H 0 Z m 0,0"
           id="path6"
           style="fill:#000000;stroke:none;stroke-width:0.264582"
           transform="matrix(0.99999541,0,0,1,-79.999495,-60.000147)" />
        <path
           clip-rule="nonzero"
           d="m 80,0 h 50.587 V 1.679658 H 80 Z m 41.05254,3.803933 h 1.67965 v 1.679658 h -1.67965 z m -35.12439,0 h 1.72907 v 1.679658 h -1.72907 z m 41.20075,0 h 1.72905 v 1.679658 h -1.72905 z m -10.57188,0 h 1.67964 v 1.679658 h -1.67964 z m -4.39673,0 h 1.67965 v 1.679658 h -1.67965 z m -4.19911,0 h 1.67965 v 1.679658 h -1.67965 z m -5.23656,0 h 1.72906 v 1.679658 h -1.72906 z m -8.39823,0 h 1.72905 V 5.483591 H 94.32639 Z M 80.93862,4.199146 h 1.67965 v 1.679659 h -1.67965 z m 17.58689,0 h 1.72905 v 1.679659 h -1.72905 z m 22.52703,3.013505 h 1.67965 v 1.679658 h -1.67965 z m -4.49552,0 h 1.67964 v 1.679658 h -1.67964 z m -4.39673,0 h 1.67965 v 1.679658 h -1.67965 z M 98.52551,8.003078 h 1.72905 v 1.679658 h -1.72905 z m -4.19912,0 h 1.72905 v 1.679658 h -1.72905 z m 13.63479,0 h 1.67965 v 1.679658 h -1.67965 z m -5.23656,0 h 1.72906 v 1.679658 h -1.72906 z m -12.59734,0 h 1.72905 v 1.679658 h -1.72905 z m -9.18866,0 h 1.67965 v 1.679658 h -1.67965 z m 46.38789,0.494017 h 1.72905 v 1.72906 h -1.72905 z m -46.38789,2.914701 h 1.67965 v 1.679658 h -1.67965 z m 4.98953,0 h 1.72907 v 1.679658 h -1.72907 z m 41.99117,0 h 1.72905 v 1.679658 h -1.72905 z m -33.59293,0 h 1.72905 v 1.679658 h -1.72905 z m 13.63479,0 h 1.67965 v 1.679658 h -1.67965 z m -5.23656,0 h 1.72906 v 1.679658 h -1.72906 z m -4.19911,0 h 1.72905 v 1.679658 h -1.72905 z m 13.63478,0 h 1.67965 v 1.679658 h -1.67965 z m -22.03301,0 h 1.72905 v 1.679658 h -1.72905 z m 32.70371,0.494017 h 1.72904 v 1.679658 h -1.72904 z m -36.90284,3.408718 h 1.72907 v 0.29641 h -1.72907 z m 36.90284,0 h 1.72904 v 0.29641 h -1.72904 z m 5.08833,-0.494017 h 1.72905 v 1.679658 h -1.72905 z m -46.9807,0 h 1.67965 v 1.679658 h -1.67965 z m 9.18866,0 h 1.72905 v 1.679658 h -1.72905 z m 32.4073,0.790427 h 2.02545 v 1.383248 h -2.02545 z m -38.08847,0 h 3.21111 v 1.383248 h -3.21111 z m 0,1.383248 h 1.67965 V 17.2906 h -1.67965 z m 11.70814,-1.383248 h 2.56887 V 17.2906 h -2.56887 z m 9.08986,0 h 1.67964 V 17.2906 h -1.67964 z m 7.01499,0 h 1.67964 V 17.2906 h -1.67964 z m -17.93271,0 h 1.72905 V 17.2906 h -1.72905 z m 28.20819,1.383248 h 1.72904 V 17.2906 h -1.72904 z m -13.68417,-1.383248 h 1.67964 V 17.2906 h -1.67964 z m -27.91179,2.667692 h 1.67965 v 1.72906 h -1.67965 z m 46.9807,0 h 1.72905 v 1.72906 h -1.72905 z m -41.99117,0.444615 h 1.72907 v 1.679659 h -1.72907 z m 22.03303,0.494019 h 1.67965 v 1.679657 h -1.67965 z m -9.43567,0 h 1.72905 v 1.679657 h -1.72905 z m 4.19911,0 h 1.72906 v 1.679657 h -1.72906 z m 15.41324,0.790426 h 1.67965 v 1.679657 h -1.67965 z m -5.97757,0 h 1.67965 v 1.679657 h -1.67965 z m 8.89225,0 h 1.67965 v 1.679657 h -1.67965 z m -30.92526,0 h 1.72905 v 1.679657 h -1.72905 z m 4.19911,0 h 1.72905 v 1.679657 h -1.72905 z m -13.38777,3.013504 h 1.67965 v 1.679659 h -1.67965 z m 17.58689,0 h 1.72905 v 1.679659 h -1.72905 z m 22.52703,0.395214 h 1.67965 v 1.679657 h -1.67965 z m -4.49552,0 h 1.67964 v 1.679657 h -1.67964 z m -4.39673,0 h 1.67965 v 1.679657 h -1.67965 z m -4.19911,0 h 1.67965 v 1.679657 h -1.67965 z m -5.23656,0 h 1.72906 v 1.679657 h -1.72906 z m -16.79647,0 h 1.72907 v 1.679657 h -1.72907 z m 8.39824,0 h 1.72905 v 1.679657 h -1.72905 z m 32.80251,0 h 1.72905 v 1.679657 H 127.1289 Z M 80,27.220343 h 50.587 v 1.679658 H 80 Z m 0,0"
           id="path6-7"
           style="fill:#000000;stroke:none;stroke-width:0.264582"
           transform="matrix(0.99999541,0,0,1,-79.999495,-60.000147)" />
        <path
           clip-rule="nonzero"
           d="m 80,60 h 50.58735 v 1.679657 H 80 Z m 22.72478,3.013504 h 1.72906 v 0.790428 h -1.72906 z m -4.199142,0.395214 h 1.729062 v 0.790427 h -1.729062 z m -17.58701,0 h 2.51949 v 0.790427 h -2.51949 z m 12.59743,0.395214 h 3.30992 v 1.679657 h -3.30992 z m 22.181372,0 h 3.30992 v 1.679657 h -3.30992 z m -3.55692,0 h 1.67966 v 1.679657 h -1.67966 z m -5.03898,0 h 3.30992 v 1.679657 h -3.30992 z m 19.21727,0 h 3.30991 v 1.679657 h -3.30991 z m -5.28598,0 h 1.67965 v 1.679657 h -1.67965 z m -18.32804,0 h 1.72906 v 1.679657 h -1.72906 z m -17.587012,0 h 3.30992 v 1.679657 h -3.30992 z m -4.19914,0.395213 h 2.51949 v 1.679658 h -2.51949 z m 17.58701,0 h 1.729062 v 1.679658 h -1.729062 z m 4.199142,1.284444 h 1.72906 v 0.83983 h -1.72906 z m -4.199142,0.395214 h 1.729062 v 0.83983 h -1.729062 z m -17.58701,0 h 2.51949 v 0.83983 h -2.51949 z m 31.221882,1.333846 h 1.67966 v 1.679658 h -1.67966 z m 8.10188,0 h 3.26051 v 1.679658 h -3.26051 z m -3.70513,0 h 1.67966 v 1.679658 h -1.67966 z m -35.618632,0.790427 h 1.67966 v 1.679659 h -1.67966 z m 27.022732,-0.790427 h 1.67966 v 2.470086 h -1.67966 z m -5.23658,0.790427 h 1.72906 v 1.679659 h -1.72906 z m -13.387862,0 h 3.30991 v 1.679659 h -3.30991 z m 4.98957,0 h 1.72906 v 1.679659 h -1.72906 z m 4.19915,0 h 1.729062 v 1.679659 h -1.729062 z m 28.801192,0.494018 h 2.32188 v 1.72906 h -2.32188 z m -16.00615,2.124273 h 3.30991 v 1.679658 h -3.30991 z m 16.59897,0.790427 h 1.72906 v 1.679659 h -1.72906 z m -37.792302,0 h 1.72906 v 1.679659 h -1.72906 z m 8.39829,0 h 1.729062 v 1.679659 h -1.729062 z m -4.19915,0 h 1.72906 v 1.679659 h -1.72906 z m 8.398292,0 h 1.72906 v 1.679659 h -1.72906 z m 8.5959,0.889231 h 3.30991 v 0.790428 h -3.30991 z M 80.938628,71.411794 h 1.67966 v 1.679659 h -1.67966 z m 27.022732,0 h 1.67966 v 1.679659 h -1.67966 z m -22.033162,0 h 1.72906 v 1.679659 h -1.72906 z m 36.903082,0.494018 h 1.92666 v 1.679658 h -1.92666 z m -38.385132,2.9147 h 1.67966 v 0.494019 h -1.67966 z m 38.088722,0 h 1.72906 v 0.494019 h -1.72906 z m 0,0.494019 h 2.22307 v 0.29641 h -2.22307 z m -11.11539,0 h 3.90274 v 0.29641 h -3.90274 z m -6.96564,0 h 3.30992 v 0.29641 h -3.30992 z m 3.60633,0 h 3.26051 v 0.29641 h -3.26051 z m -23.614022,0 h 3.40872 v 0.29641 h -3.40872 z m 5.6812,-0.494019 h 1.72906 v 1.679658 h -1.72906 z m 37.792302,0 h 1.72906 v 1.679658 h -1.72906 z m -46.981022,0 h 1.67966 v 1.679658 h -1.67966 z m 3.50752,0.790429 h 3.40872 v 1.383247 h -3.40872 z m 38.088722,0 h 2.22307 v 1.383247 h -2.22307 z m 0,1.383247 h 1.72906 v 0.29641 h -1.72906 z m -38.088722,0 h 1.67966 v 0.29641 h -1.67966 z m 23.614022,-1.383247 h 3.26051 v 1.679657 h -3.26051 z m -11.905822,0 h 3.40872 v 1.679657 h -3.40872 z m 15.265132,0 h 3.90274 v 1.679657 h -3.90274 z M 94.326488,74.820512 h 1.72906 v 2.470086 h -1.72906 z m 10.127352,0.790429 h 3.30992 v 1.679657 h -3.30992 z m 18.08103,1.679657 h 1.72906 v 0.790427 h -1.72906 z m -38.088722,0 h 1.67966 v 0.790427 h -1.67966 z m -3.50752,0.988033 h 1.67966 v 1.729061 h -1.67966 z m 46.981022,0 h 1.72906 v 1.729061 h -1.72906 z m -16.59897,0.938634 h 3.30991 v 0.790427 h -3.30991 z M 90.127348,78.377436 h 2.32188 v 1.630256 h -2.32188 z m 4.19914,0.839829 h 1.72906 v 0.790427 h -1.72906 z m -8.39829,-0.494018 h 1.92667 v 1.679659 h -1.92667 z m 16.796582,0.494018 h 1.72906 v 1.679658 h -1.72906 z m -4.199142,0 h 1.729062 v 1.679658 h -1.729062 z m 9.435722,0 h 1.67966 v 1.679658 h -1.67966 z m 12.30103,0.790427 h 3.26051 v 1.679657 h -3.26051 z m -30.135042,0 h 2.32188 v 1.679657 h -2.32188 z m 28.010772,-1.284445 h 1.92666 v 2.964102 h -1.92666 z m -6.81744,1.284445 h 3.30991 v 1.679657 h -3.30991 z m -16.994192,0 h 1.72906 v 1.679657 h -1.72906 z m -4.19914,1.679657 h 2.32188 v 0.790426 h -2.32188 z m 4.19914,0 h 1.72906 v 0.790426 h -1.72906 z m 4.19915,0.494019 h 1.729062 v 0.839827 h -1.729062 z m -17.58701,0 h 2.51949 v 0.839827 h -2.51949 z m 21.786152,0.444617 h 1.72906 v 0.79042 h -1.72906 z m -8.398292,0 h 1.72906 v 0.79042 h -1.72906 z m -8.39829,0 h 1.72906 v 0.79042 h -1.72906 z m 12.59744,0.39521 h 1.729062 v 1.67966 h -1.729062 z m -17.58701,0 h 2.51949 v 1.67966 h -2.51949 z m 26.182902,0.39521 h 3.30992 v 1.67966 h -3.30992 z m 8.5959,0 h 3.30992 v 1.67966 h -3.30992 z m 10.62137,0 h 3.30991 v 1.67966 h -3.30991 z m -40.410602,0 h 1.72906 v 1.67966 h -1.72906 z m 16.796582,0 h 1.72906 v 1.67966 h -1.72906 z m 18.32804,0 h 1.67965 v 1.67966 h -1.67965 z m -8.89231,0 h 1.67966 v 1.67966 h -1.67966 z m -17.834022,0 h 1.72906 v 1.67966 h -1.72906 z m 4.19915,1.28445 h 1.729062 v 0.79043 h -1.729062 z m -17.58701,0 h 2.51949 v 0.79043 h -2.51949 z m 21.786152,0.39521 h 1.72906 v 0.79043 h -1.72906 z m -16.796582,0 h 1.72906 v 0.79043 h -1.72906 z m 8.39829,0 h 1.72906 v 0.79043 h -1.72906 z M 80,87.220345 h 50.58735 v 1.67965 H 80 Z m 0,0"
           id="path2"
           style="fill:#000000;stroke:none;stroke-width:0.264582"
           transform="matrix(0.99999541,0,0,1,-79.999495,-60.000147)" />
        <path
           clip-rule="nonzero"
           d="m 120,90 h 50.58735 v 1.67965 H 120 Z m 22.72479,1.67965 h 1.72906 v 2.12427 h -1.72906 z m -17.58701,0 h 3.30992 v 2.12427 h -3.30992 z m 8.39829,0 h 3.30992 v 2.12427 h -3.30992 z m -12.59744,1.72906 h 2.51949 v 0.79043 h -2.51949 z m 17.58701,0 h 1.72906 v 0.79043 h -1.72906 z m -4.98957,0.39521 h 3.30992 v 1.67967 h -3.30992 z m 13.58547,0 h 22.52717 v 1.67967 h -22.52717 z m -21.98376,0 h 3.30992 v 1.67967 h -3.30992 z m 17.58701,0 h 1.72906 v 1.67967 h -1.72906 z m -4.19915,0.39522 h 1.72906 v 1.67967 h -1.72906 z m -17.58701,0 h 2.51949 v 1.67967 h -2.51949 z m 21.78616,1.28445 h 1.72906 v 0.83983 h -1.72906 z m -21.78616,0.39522 h 2.51949 v 0.83982 h -2.51949 z m 17.58701,0 h 1.72906 v 2.12427 h -1.72906 z m 9.43573,1.33384 h 15.56153 v 0.79043 h -15.56153 z m -9.43573,0.79043 h 24.99726 v 0.88923 h -24.99726 z m 0,0.88923 h 11.11538 v 0.79043 h -11.11538 z m -9.18871,-0.88923 h 6.71863 v 1.67966 h -6.71863 z m 37.9899,-2.51949 h 2.32188 v 4.74256 h -2.32188 z m -46.3882,1.23504 h 1.67966 v 4.69317 h -1.67966 z m 13.38787,2.96411 h 1.72906 v 1.72906 h -1.72906 z m 16.99419,0.93863 h 3.30991 v 0.79043 h -3.30991 z m -16.99419,0.79043 h 20.3041 v 0.88923 h -20.3041 z m 0,0.88923 h 20.3041 v 0.79042 h -20.3041 z m -13.38787,-0.88923 h 10.91778 v 1.67965 h -10.91778 z m 9.18872,1.67965 h 1.72906 v 1.72906 h -1.72906 z m 32.70393,-1.18564 h 1.92666 v 2.9147 h -1.92666 z m -38.38512,2.9147 h 1.67966 v 0.49402 h -1.67966 z m 0,0.49402 h 3.40872 v 0.29641 h -3.40872 z m 5.68119,-0.49402 h 5.92821 v 0.79043 h -5.92821 z m 32.40752,0 h 2.22307 v 0.79043 h -2.22307 z m -18.08102,0.49402 h 10.86837 v 0.29641 h -10.86837 z m -14.3265,0.29641 h 9.43573 v 0.88923 h -9.43573 z m 32.40752,0 h 2.22307 v 1.38325 h -2.22307 z m -28.20837,0.88923 h 5.23658 v 0.79043 h -5.23658 z m -9.88034,-0.88923 h 3.40872 v 1.67966 h -3.40872 z m 20.00769,0 h 10.86837 v 1.67966 h -10.86837 z m 18.08102,1.38325 h 1.72906 v 0.29641 h -1.72906 z m -38.08871,0.29641 h 3.40872 v 0.79043 h -3.40872 z m 38.08871,0 h 1.72906 v 0.79043 h -1.72906 z m -32.40752,1.08684 h 2.32188 v 1.63025 h -2.32188 z m 28.01077,0.34581 h 1.92666 v 1.28444 h -1.92666 z m -23.81162,0.49401 h 1.72906 v 0.79043 h -1.72906 z m 4.19914,0 h 16.10496 v 0.79043 h -16.10496 z m -12.59743,-1.13623 h 1.92667 v 2.32187 h -1.92667 z m 12.59743,1.92666 h 16.10496 v 0.88923 h -16.10496 z m 12.79505,0.88923 h 3.30991 v 0.79043 h -3.30991 z m -21.19334,-0.88923 h 2.32188 v 1.67966 h -2.32188 z m 4.19915,0 h 1.72906 v 1.67966 h -1.72906 z m 23.81162,0 h 5.38478 v 1.67966 h -5.38478 z m -37.19949,-6.91624 h 1.67966 v 9.08992 h -1.67966 z m 9.18872,8.5959 h 2.32188 v 0.79043 h -2.32188 z m 8.39829,-0.79043 h 1.72906 v 2.12427 h -1.72906 z m -17.58701,1.28445 h 2.51949 v 0.83982 h -2.51949 z m 13.38787,-0.49402 h 1.72906 v 1.72906 h -1.72906 z m 33.59315,-11.4612 h 1.72906 v 13.19026 h -1.72906 z m -41.99144,12.39983 h 1.72906 v 0.79043 h -1.72906 z m 16.79658,0 h 1.72906 v 0.79043 h -1.72906 z m -4.19915,0.39521 h 1.72906 v 1.67966 h -1.72906 z m -17.58701,0 h 2.51949 v 1.67966 h -2.51949 z m 13.38787,0.39522 h 1.72906 v 1.67966 h -1.72906 z m -8.39829,0 h 1.72906 v 1.67966 h -1.72906 z m 16.79658,0 h 1.72906 v 1.67966 h -1.72906 z m 4.39675,0 h 22.52717 v 1.67966 h -22.52717 z m -8.5959,1.28444 h 1.72906 v 0.79043 h -1.72906 z m -17.58701,0 h 2.51949 v 0.79043 h -2.51949 z m 13.38787,0.39522 h 1.72906 v 2.12427 h -1.72906 z m 8.39829,0 h 1.72906 v 2.12427 h -1.72906 z m -16.79658,0 h 1.72906 v 2.12427 h -1.72906 z M 120,117.22034 h 50.58735 V 118.9 H 120 Z m 0,0"
           id="path4"
           style="fill:#000000;stroke:none;stroke-width:0.264582"
           transform="matrix(0.99999541,0,0,1,-79.999495,-60.000147)" />
        <path
           clip-rule="nonzero"
           d="m 40,30 h 50.587365 v 1.67966 H 40 Z m 14.3265,1.67966 h 1.72906 v 5.13777 H 54.3265 Z m 8.39829,0 h 1.729064 v 5.13777 H 62.72479 Z m 4.199154,3.40871 H 85.44959 v 1.72906 H 66.923944 Z M 45.92821,31.67966 h 1.72906 v 5.13777 h -1.72906 z m 12.59743,3.40871 h 1.72906 v 3.40872 h -1.72906 z m -8.39829,3.40872 h 5.92821 v 1.72906 h -5.92821 z m 8.39829,0 h 22.7248 v 1.72906 h -22.7248 z m -4.19914,1.72906 h 1.72906 v 1.67966 H 54.3265 Z M 41.72906,35.08837 h 1.72906 v 6.81744 h -1.72906 z m 0,6.81744 h 10.12735 v 1.67966 H 41.72906 Z m 12.59744,0 h 18.525646 v 1.67966 H 54.3265 Z m -4.19915,1.67966 h 1.72906 v 1.72906 h -1.72906 z m 29.39403,-1.67966 h 1.72906 v 3.40872 h -1.72906 z m 0,3.40872 h 3.80393 v 1.67966 h -3.80393 z m -29.39403,0 H 60.2547 v 1.67966 H 50.12735 Z m -6.27401,0 h 3.80393 v 1.67966 h -3.80393 z m 20.995724,0 H 74.92702 v 1.67966 H 64.849064 Z M 45.92821,46.99419 h 1.72906 v 3.40871 h -1.72906 z m 29.39403,1.72906 h 5.9282 v 1.67965 h -5.9282 z m -25.19489,0 h 1.72906 v 1.67965 h -1.72906 z m 8.39829,0 H 72.852146 V 50.4029 H 58.52564 Z M 83.72053,36.81743 h 1.72906 V 52.08256 H 83.72053 Z M 58.52564,50.4029 h 1.72906 v 3.40872 H 58.52564 Z M 41.72906,43.58547 h 1.72906 v 10.22615 h -1.72906 z m 25.194884,8.49709 H 85.44959 v 1.72906 H 66.923944 Z M 54.3265,48.72325 h 1.72906 v 8.49709 H 54.3265 Z m 8.39829,3.35931 h 1.729064 v 5.13778 H 62.72479 Z m -16.79658,0 h 1.72906 v 5.13778 H 45.92821 Z M 40,57.22034 H 90.587365 V 58.9 H 40 Z m 0,0"
           id="path2-6"
           style="stroke-width:0.264583"
           transform="matrix(0.99999541,0,0,1,-79.999495,-60.000147)" />
        <path
           clip-rule="nonzero"
           d="m 120,30 h 50.58735 v 1.67966 H 120 Z m 14.32649,1.67966 h 1.72906 v 3.80393 h -1.72906 z m 8.39829,0 h 1.72906 v 3.80393 h -1.72906 z m 5.23658,2.12427 h 20.89692 v 1.67966 H 147.96136 Z M 125.9282,31.67966 h 1.72906 v 3.80393 h -1.72906 z m 12.59744,2.51949 h 1.72906 v 3.80393 h -1.72906 z m 13.63487,3.0135 h 10.57196 v 0.79043 h -10.57196 z m 15.16632,-1.72906 h 1.53145 v 3.0135 h -1.53145 z m -28.80119,2.51949 h 24.20683 v 0.88923 h -24.20683 z m 0,0.88923 h 15.31453 v 0.79043 h -15.31453 z m -8.39829,-0.88923 h 5.9282 v 1.67966 h -5.9282 z m 37.19948,0.49401 h 2.32188 v 1.72906 h -2.32188 z m -46.3882,-4.29794 h 1.67966 v 7.21265 h -1.67966 z m 13.38786,5.48359 h 1.72906 v 1.72906 h -1.72906 z m -13.38786,1.72906 h 10.91778 v 1.67965 h -10.91778 z m 13.38786,0 h 19.51368 v 1.67965 h -19.51368 z m -4.19914,1.67965 h 1.72906 v 1.72906 h -1.72906 z m 0,1.72906 h 5.9282 v 0.79043 h -5.9282 z m 32.70393,-2.9147 h 1.72906 v 3.70513 h -1.72906 z m -36.90308,3.40872 h 1.72906 v 0.29641 h -1.72906 z m 4.19915,0.29641 h 8.59589 v 0.88923 h -8.59589 z m 4.19914,0.88923 h 4.39675 v 0.79043 h -4.39675 z m 10.91778,-0.88923 h 8.6947 v 1.67966 h -8.6947 z m 17.2906,0 h 2.02547 v 1.67966 h -2.02547 z m -38.08872,0 h 3.21111 v 1.67966 h -3.21111 z m 43.4735,-5.38479 h 1.72906 v 8.05248 h -1.72906 z m -0.79042,8.05248 h 2.51948 v 1.72906 h -2.51948 z M 125.9282,47.2906 h 1.72906 v 3.11231 h -1.72906 z m 12.59744,1.92667 h 15.31453 v 1.67965 h -15.31453 z m -8.39829,0.79042 h 1.72906 v 1.67966 h -1.72906 z m 22.03316,0.88923 h 1.67966 v 0.79043 h -1.67966 z m 5.9776,-0.88923 h 4.59436 v 1.67966 h -4.59436 z m 8.99112,0 h 1.72905 v 3.40872 h -1.72905 z m -28.60359,0.88923 h 1.72906 v 3.80393 h -1.72906 z m -17.58701,-7.80547 h 1.67966 v 11.6094 h -1.67966 z m 27.02273,10.32496 h 20.89692 v 1.67966 h -20.89692 z m -13.63487,-3.40872 h 1.72906 v 7.21265 h -1.72906 z m -8.39829,3.40872 h 1.72906 v 3.80393 h -1.72906 z m 16.79658,0 h 1.72906 v 3.80393 h -1.72906 z M 120,57.22034 h 50.58735 V 58.9 H 120 Z m 0,0"
           id="path2-4"
           style="stroke-width:0.264583"
           transform="matrix(0.99999541,0,0,1,-79.999495,-60.000147)" />
        <path
           clip-rule="nonzero"
           d="m -79.999495,-1.47e-4 h 50.587115 v 1.6796582 h -50.587115 z m 1.729052,3.5075214 h 2.519475 V 6.817289 h -2.519475 z m 41.991258,1.5808547 h 3.309899 V 6.817289 h -3.309899 z m -4.199126,0 h 1.729052 V 6.817289 h -1.729052 z m -4.199126,0 h 3.309899 V 6.817289 h -3.309899 z m -4.199126,0 h 1.729052 V 6.817289 h -1.729052 z m -4.199126,0 h 3.3099 V 6.817289 h -3.3099 z m -20.995629,0 h 3.3099 V 6.817289 h -3.3099 z m 8.398252,0 h 3.309899 V 6.817289 h -3.309899 z m 4.199126,-1.5808547 h 1.729052 V 6.817289 h -1.729052 z m 4.199126,0 h 1.729051 V 6.817289 h -1.729051 z m 4.199125,4.1991457 h 1.729052 v 2.5194859 h -1.729052 z m 16.796504,0.790427 h 2.321869 v 1.7290589 h -2.321869 z m -4.199126,0 h 3.309899 v 1.7290589 h -3.309899 z m -4.199126,0 h 1.729052 v 1.7290589 h -1.729052 z m -4.199126,0 h 1.729052 v 1.7290589 h -1.729052 z m -20.995629,0 h 3.309899 v 1.7290589 h -3.309899 z m 12.597378,0 h 1.729051 v 1.7290589 h -1.729051 z m -4.199126,0 h 1.729052 v 1.7290589 h -1.729052 z m -4.199126,0 h 1.729052 v 1.7290589 h -1.729052 z m -12.597377,0 h 1.729051 v 1.7290589 h -1.729051 z m 29.39388,2.6182899 h 3.309899 v 2.470086 h -3.309899 z m 12.597378,0.790428 h 1.729051 v 1.679658 h -1.729051 z m -4.199126,0 h 1.926658 v 1.679658 h -1.926658 z m -33.593007,0 h 1.729052 v 1.679658 h -1.729052 z m 20.995629,0 h 1.729052 v 1.679658 h -1.729052 z m -4.199125,0 h 1.729051 v 1.679658 h -1.729051 z m -4.199126,0 h 1.729052 v 1.679658 h -1.729052 z m -4.199126,0 h 1.729052 v 1.679658 h -1.729052 z m -4.199126,0 h 1.729052 v 1.679658 h -1.729052 z m -8.398251,0 h 1.729051 v 1.679658 h -1.729051 z m 8.398251,3.408718 h 1.729052 v 0.988034 h -1.729052 z m 31.518144,-1.630257 h 1.679651 v 3.309915 h -1.679651 z m -39.916395,1.630257 h 1.729051 v 1.679658 h -1.729051 z m 37.792132,0 h 1.926658 v 1.679658 h -1.926658 z m -10.473114,-0.296411 h 3.309899 v 1.976069 h -3.309899 z m -12.597377,0.296411 h 3.803914 v 1.679658 h -3.803914 z m 16.796503,-0.296411 h 3.902717 v 1.976069 h -3.902717 z m 10.473114,0.296411 h 1.729051 v 1.679658 h -1.729051 z m -18.871366,-0.296411 h 3.309899 v 1.976069 h -3.309899 z M -76.14618,13.684126 h 1.679651 v 3.309915 h -1.679651 z m 2.074862,1.630257 h 1.926658 v 1.679658 h -1.926658 z m 8.398252,-0.790428 h 1.729052 v 2.470086 h -1.729052 z m -4.199126,1.778462 h 2.32187 v 4.100342 h -2.32187 z m 33.593007,2.420684 h 1.729051 v 1.679658 h -1.729051 z m -4.199126,0 h 3.309899 v 1.679658 h -3.309899 z m -33.593007,0 h 1.926658 v 1.679658 h -1.926658 z m -4.199125,0 h 1.729051 v 1.679658 h -1.729051 z m 25.194754,0 h 1.729052 v 1.679658 h -1.729052 z m -4.199125,0 h 1.729051 v 1.679658 h -1.729051 z m -4.199126,0 h 1.729052 v 1.679658 h -1.729052 z m 12.597377,-0.83983 h 3.309899 v 2.519488 h -3.309899 z m 4.199126,-0.494017 h 1.926658 v 3.013505 h -1.926658 z m -20.995629,-0.29641 h 1.729052 v 3.309915 h -1.729052 z m -12.597377,3.408718 h 2.519475 v 3.309915 h -2.519475 z m 41.991258,1.580855 h 3.309899 v 1.72906 h -3.309899 z m -4.199126,0 h 1.729052 v 1.72906 h -1.729052 z m -4.199126,0 h 3.309899 v 1.72906 h -3.309899 z m -4.199126,0 h 1.729052 v 1.72906 h -1.729052 z m -4.199126,0 h 3.3099 v 1.72906 h -3.3099 z m -4.199125,-1.580855 h 1.729051 v 3.309915 h -1.729051 z m -4.199126,0 h 1.729052 v 3.309915 h -1.729052 z m -4.199126,0 h 1.729052 v 3.309915 h -1.729052 z m -8.398252,0 h 1.729052 v 3.309915 h -1.729052 z m -5.928177,6.718633 h 50.587115 v 1.679658 h -50.587115 z m 0,0"
           id="path4-3"
           style="stroke-width:0.264583" />
        <path
           id="path2-1"
           d="m -39.999679,29.999853 v 1.679658 h 5.928182 v 5.137782 h 3.309895 v -5.137782 h 5.088357 v 5.137782 h 3.309894 v -5.137782 h 5.088356 v 5.137782 h 1.729052 v -5.137782 h 26.133391 v -1.679658 z m 1.729052,3.50752 v 3.30992 5.08837 1.67966 6.91624 3.309906 h 2.519478 v -3.309906 h -0.790426 v -6.91624 h 6.669199 v 1.72906 1.67966 3.40872 h 2.321869 v -3.40872 h 7.805444 v -1.67966 h -4.19913 v -0.79043 h -1.729052 v 0.79043 h -2.470079 v -1.72906 -1.67966 h -8.398251 v -5.08837 h 0.790426 v -3.30992 z m 16.796512,0 v 4.98957 1.72906 H 2.831413 v -1.72906 h -14.178226 v -0.79042 h -1.729052 v 0.79042 h -6.669198 v -4.98957 z m 8.39825,1.58086 v 1.72906 H 3.7206394 v 3.40871 11.856406 H -13.075865 v 1.72906 h 20.1064 v -1.72906 H 5.449692 V 40.226003 h 0.592817 v -3.40871 h 0.988026 v -1.72906 z m -16.796511,3.40871 v 1.72906 h 4.199131 v 1.67966 1.67966 h 20.1064056 v -1.67966 -0.79042 h -3.3099048 v 0.79042 H -23.944193 v -1.67966 -1.72906 z m 29.3938831,3.40872 v 5.08838 h 1.136235 0.7904265 0.197609 0.6916172 0.9880264 v -3.30992 H 2.3373948 1.6457776 1.4481686 v -1.77846 z m -35.6678641,1.77846 v 3.30992 h 1.679652 0.395208 v 3.40872 h 1.926652 v -5.08838 h -1.333834 -0.988026 v -1.63026 z m 20.995622,1.33385 v 1.97607 h 12.3009731 v -1.97607 z m -10.52251,2.07487 v 10.127346 h -6.6692 v -6.718626 h -1.729052 v 6.718626 h -5.928182 v 1.67966 h 50.587127 v -1.67966 h -26.133391 v -6.718626 h -1.729052 v 6.718626 h -6.669198 V 47.092843 Z m 20.9956315,0.29641 v 1.33385 1.67966 H 2.831413 v -1.67966 h -5.5823749 v -1.33385 z m -4.1991307,0.49402 v 0.83983 H -21.474115 v 1.67966 3.408706 h 1.729052 v -3.408706 h 14.1782236 v -1.67966 -0.83983 z"
           style="stroke-width:0.264582" />
        <g
           id="g13"
           transform="matrix(0.99999541,0,0,1,-79.999495,-54.70848)">
          <path
             d="m 55.305492,12.926125 -1.12455,-1.124479 0.37705,-0.377031 0.4829,0.482864 v -1.362603 h -1.35607 l 0.48289,0.47625 -0.38368,0.383645 -1.12454,-1.124478 1.11793,-1.117864 0.37706,0.377031 -0.47629,0.476249 h 1.3627 V 8.653106 l -0.4829,0.482864 -0.37705,-0.377031 1.12455,-1.124478 1.12455,1.124478 -0.37705,0.377031 -0.4829,-0.482864 v 1.362603 h 1.35607 l -0.48289,-0.476249 0.38367,-0.383646 1.12455,1.124479 -1.12455,1.124478 -0.37706,-0.377031 0.4829,-0.482864 h -1.36269 v 1.355989 l 0.47628,-0.482865 0.38367,0.383646 z"
             id="path1-2-3"
             style="stroke-width:0.00661458" />
          <path
             style="fill:none;stroke:#000000;stroke-width:0.529167;stroke-linecap:butt;stroke-linejoin:miter;stroke-dasharray:none;stroke-opacity:1;marker-end:url(#ArrowWide)"
             d="m 50.206996,12.748631 c 0,0 4.824997,1.303128 7.30216,1.441209 3.934073,0.219291 7.840967,-1.104427 11.779362,-0.985814 2.736044,0.0824 8.1272,1.176077 8.1272,1.176077"
             id="path8" />
        </g>
        <g
           id="g15"
           transform="matrix(0.99999541,0,0,1,-69.416211,-60.000147)">
          <path
             id="path7-8-7"
             style="stroke-width:0.00661458"
             d="m 6.3944503,34.329423 v 0.529167 h 0.52917 v -0.529167 z m 1.32292,7e-6 v 0.529167 h 0.52917 V 34.32943 Z m 1.32293,0 v 0.529167 H 10.25728 l -3.3336497,3.333646 v -1.21698 h -0.52916 v 2.116667 h 2.11667 v -0.529167 h -1.2175 L 10.6278,35.229118 v 1.216979 h 0.52917 v -2.116666 z m -2.64583,1.32291 v 0.529166 h 0.52916 V 35.65234 Z m 4.2333297,1.5875 v 0.529166 h 0.52917 v -0.529167 z m 0,1.322924 v 0.529167 h 0.52917 v -0.529167 z m -1.3229297,-1e-6 v 0.529167 h 0.5291698 v -0.529167 z" />
          <path
             style="fill:none;stroke:#000000;stroke-width:0.529167;stroke-linecap:butt;stroke-linejoin:miter;stroke-dasharray:none;stroke-opacity:1;marker-end:url(#ArrowWide)"
             d="m 12.261179,31.547052 c 0,0 1.27871,6.183602 1.232622,9.315492 -0.04268,2.900545 -1.307497,5.69051 -1.394937,8.590051 -0.083,2.752335 0.83037,8.21892 0.83037,8.21892"
             id="path9" />
        </g>
        <g
           id="g14"
           transform="matrix(0.99999541,0,0,1,-79.999495,-60.000147)">
          <path
             d="M 31.57836,36.930529 30.83,37.678889 q -0.38821,0.388208 -0.93544,0.388206 -0.54724,-2e-6 -0.93544,-0.388211 -0.38821,-0.388209 -0.38822,-0.93544 0,-0.547232 0.38821,-0.935441 l 0.74836,-0.74836 0.37418,0.374177 -0.74836,0.74836 q -0.23386,0.233861 -0.23386,0.561266 0,0.327405 0.23386,0.561266 0.23386,0.23386 0.56126,0.23386 0.32741,0 0.56127,-0.233861 l 0.74836,-0.748359 z m -1.30962,-0.187088 -0.37418,-0.374178 1.4967,-1.496704 0.37418,0.374177 z m 1.68379,-0.187084 -0.37418,-0.374178 0.74835,-0.748352 q 0.23387,-0.233862 0.23387,-0.561266 0,-0.327405 -0.23387,-0.561266 -0.23386,-0.23386 -0.56126,-0.233861 -0.32741,0 -0.56127,0.233861 L 30.45582,35.059648 30.08164,34.685471 30.83,33.937118 q 0.3882,-0.388208 0.93544,-0.388213 0.54723,1e-6 0.93544,0.388211 0.38821,0.388208 0.38822,0.93544 -1e-5,0.54724 -0.38822,0.935448 z"
             id="path1-6-8"
             style="stroke-width:0.00661458" />
          <path
             style="fill:none;stroke:#000000;stroke-width:0.529167;stroke-linecap:butt;stroke-linejoin:miter;stroke-dasharray:none;stroke-opacity:1;marker-end:url(#ArrowWide)"
             d="m 25.51788,31.365899 c 0,0 1.005745,6.740502 3.127327,9.179305 2.407324,2.767269 9.824003,4.956395 9.824003,4.956395"
             id="path10" />
        </g>
        <g
           id="g17"
           transform="matrix(0.99999541,0,0,1,-79.999504,5.2910584)">
          <path
             d="m 55.305501,12.926125 -1.12455,-1.124479 0.37705,-0.377031 0.4829,0.482864 v -1.362603 h -1.35607 l 0.48289,0.47625 -0.38368,0.383645 -1.12454,-1.124478 1.11793,-1.117864 0.37706,0.377031 -0.47629,0.476249 h 1.3627 V 8.653106 l -0.4829,0.482864 -0.37705,-0.377031 1.12455,-1.124478 1.12455,1.124478 -0.37705,0.377031 -0.4829,-0.482864 v 1.362603 h 1.35607 l -0.48289,-0.476249 0.38367,-0.383646 1.12455,1.124479 -1.12455,1.124478 -0.37706,-0.377031 0.4829,-0.482864 h -1.36269 v 1.355989 l 0.47628,-0.482865 0.38367,0.383646 z"
             id="path16"
             style="stroke-width:0.00661458" />
          <path
             style="fill:none;stroke:#000000;stroke-width:0.529167;stroke-linecap:butt;stroke-linejoin:miter;stroke-dasharray:none;stroke-opacity:1;marker-end:url(#ArrowWide)"
             d="m 50.206996,12.748631 c 0,0 4.824997,1.303128 7.30216,1.441209 3.934073,0.219291 7.840967,-1.104427 11.779362,-0.985814 2.736044,0.0824 8.1272,1.176077 8.1272,1.176077"
             id="path17" />
        </g>
        <g
           id="g19"
           transform="matrix(0.99999541,0,0,1,-39.99968,-24.70894)">
          <path
             d="m 55.305465,12.926193 -1.12455,-1.124479 0.37705,-0.377031 0.4829,0.482864 v -1.362603 h -1.35607 l 0.48289,0.47625 -0.38368,0.383645 -1.12454,-1.124478 1.11793,-1.1178636 0.37706,0.377031 -0.47629,0.4762486 h 1.3627 V 8.6531744 l -0.4829,0.482864 -0.37705,-0.377031 1.12455,-1.124478 1.12455,1.124478 -0.37705,0.377031 -0.4829,-0.482864 v 1.3626026 h 1.35607 l -0.48289,-0.4762486 0.38367,-0.383646 1.12455,1.1244786 -1.12455,1.124478 -0.37706,-0.377031 0.4829,-0.482864 h -1.36269 v 1.355989 l 0.47628,-0.482865 0.38367,0.383646 z"
             id="path18"
             style="stroke-width:0.00661458" />
          <path
             style="fill:none;stroke:#000000;stroke-width:0.529167;stroke-linecap:butt;stroke-linejoin:miter;stroke-dasharray:none;stroke-opacity:1;marker-end:url(#ArrowWide)"
             d="m 50.206996,12.748631 c 0,0 4.824997,1.303128 7.30216,1.441209 3.934073,0.219291 7.840967,-1.104427 11.779362,-0.985814 2.736044,0.0824 8.1272,1.176077 8.1272,1.176077"
             id="path19" />
        </g>
        <g
           id="g21"
           transform="matrix(0.99999541,0,0,1,-39.999688,35.290599)">
          <path
             d="m 55.305474,12.926125 -1.12455,-1.124479 0.37705,-0.377031 0.4829,0.482864 v -1.362603 h -1.35607 l 0.48289,0.47625 -0.38368,0.383645 -1.12454,-1.124478 1.11793,-1.117864 0.37706,0.377031 -0.47629,0.476249 h 1.3627 V 8.653106 l -0.4829,0.482864 -0.37705,-0.377031 1.12455,-1.124478 1.12455,1.124478 -0.37705,0.377031 -0.4829,-0.482864 v 1.362603 h 1.35607 l -0.48289,-0.476249 0.38367,-0.383646 1.12455,1.124479 -1.12455,1.124478 -0.37706,-0.377031 0.4829,-0.482864 h -1.36269 v 1.355989 l 0.47628,-0.482865 0.38367,0.383646 z"
             id="path20"
             style="stroke-width:0.00661458" />
          <path
             style="fill:none;stroke:#000000;stroke-width:0.529167;stroke-linecap:butt;stroke-linejoin:miter;stroke-dasharray:none;stroke-opacity:1;marker-end:url(#ArrowWide)"
             d="m 50.206996,12.748631 c 0,0 4.824997,1.303128 7.30216,1.441209 3.934073,0.219291 7.840967,-1.104427 11.779362,-0.985814 2.736044,0.0824 8.1272,1.176077 8.1272,1.176077"
             id="path21" />
        </g>
        <g
           id="g23"
           transform="matrix(0.99999541,0,0,1,10.583092,-60.000147)">
          <path
             id="path22"
             style="stroke-width:0.00661458"
             d="m 6.3944596,34.329423 v 0.529167 h 0.52917 v -0.529167 z m 1.32292,7e-6 v 0.529167 h 0.52917 V 34.32943 Z m 1.32293,0 v 0.529167 h 1.2169794 l -3.3336494,3.333646 v -1.21698 h -0.52916 v 2.116667 h 2.11667 v -0.529167 h -1.2175 l 3.3341594,-3.333645 v 1.216979 h 0.52917 v -2.116666 z m -2.64583,1.32291 v 0.529166 h 0.52916 V 35.65234 Z m 4.2333294,1.5875 v 0.529166 h 0.52917 v -0.529167 z m 0,1.322924 v 0.529167 h 0.52917 v -0.529167 z m -1.3229294,-1e-6 v 0.529167 h 0.5291698 v -0.529167 z" />
          <path
             style="fill:none;stroke:#000000;stroke-width:0.529167;stroke-linecap:butt;stroke-linejoin:miter;stroke-dasharray:none;stroke-opacity:1;marker-end:url(#ArrowWide)"
             d="m 12.261179,31.547052 c 0,0 1.27871,6.183602 1.232622,9.315492 -0.04268,2.900545 -1.307497,5.69051 -1.394937,8.590051 -0.083,2.752335 0.83037,8.21892 0.83037,8.21892"
             id="path23" />
        </g>
        <g
           id="g25"
           transform="matrix(0.99999541,0,0,1,-29.416723,-30.00062)">
          <path
             id="path24"
             style="stroke-width:0.00661458"
             d="m 6.3942221,34.329412 v 0.529167 h 0.52917 v -0.529167 z m 1.32292,7e-6 v 0.529167 h 0.52917 v -0.529167 z m 1.32293,0 v 0.529167 h 1.2169789 l -3.3336489,3.333646 v -1.21698 h -0.52916 v 2.116667 h 2.11667 v -0.529167 h -1.2175 l 3.3341589,-3.333645 v 1.216979 h 0.52917 V 34.32942 Z m -2.64583,1.32291 v 0.529166 h 0.52916 v -0.529166 z m 4.2333289,1.5875 v 0.529166 h 0.52917 v -0.529167 z m 0,1.322924 v 0.529167 h 0.52917 v -0.529167 z m -1.3229289,-10e-7 v 0.529167 h 0.5291698 v -0.529167 z" />
          <path
             style="fill:none;stroke:#000000;stroke-width:0.529167;stroke-linecap:butt;stroke-linejoin:miter;stroke-dasharray:none;stroke-opacity:1;marker-end:url(#ArrowWide)"
             d="m 12.261179,31.547052 c 0,0 1.27871,6.183602 1.232622,9.315492 -0.04268,2.900545 -1.307497,5.69051 -1.394937,8.590051 -0.083,2.752335 0.83037,8.21892 0.83037,8.21892"
             id="path25" />
        </g>
        <g
           id="g27"
           transform="matrix(0.99999541,0,0,1,50.582585,-30.00062)">
          <path
             id="path26"
             style="stroke-width:0.00661458"
             d="m 6.3942283,34.329412 v 0.529167 h 0.52917 v -0.529167 z m 1.32292,7e-6 v 0.529167 h 0.52917 v -0.529167 z m 1.32293,0 v 0.529167 h 1.2169797 l -3.3336497,3.333646 v -1.21698 h -0.52916 v 2.116667 h 2.11667 v -0.529167 h -1.2175 l 3.3341597,-3.333645 v 1.216979 h 0.52917 V 34.32942 Z m -2.64583,1.32291 v 0.529166 h 0.52916 v -0.529166 z m 4.2333297,1.5875 v 0.529166 h 0.52917 v -0.529167 z m 0,1.322924 v 0.529167 h 0.52917 v -0.529167 z m -1.3229297,-10e-7 v 0.529167 h 0.5291698 v -0.529167 z" />
          <path
             style="fill:none;stroke:#000000;stroke-width:0.529167;stroke-linecap:butt;stroke-linejoin:miter;stroke-dasharray:none;stroke-opacity:1;marker-end:url(#ArrowWide)"
             d="m 12.261179,31.547052 c 0,0 1.27871,6.183602 1.232622,9.315492 -0.04268,2.900545 -1.307497,5.69051 -1.394937,8.590051 -0.083,2.752335 0.83037,8.21892 0.83037,8.21892"
             id="path27" />
        </g>
        <g
           id="g29"
           transform="matrix(0.99999541,0,0,1,-5.4749748e-5,-60.000147)">
          <path
             d="m 31.578553,36.930529 -0.74836,0.74836 q -0.38821,0.388208 -0.93544,0.388206 -0.54724,-2e-6 -0.93544,-0.388211 -0.38821,-0.388209 -0.38822,-0.93544 0,-0.547232 0.38821,-0.935441 l 0.74836,-0.74836 0.37418,0.374177 -0.74836,0.74836 q -0.23386,0.233861 -0.23386,0.561266 0,0.327405 0.23386,0.561266 0.23386,0.23386 0.56126,0.23386 0.32741,0 0.56127,-0.233861 l 0.74836,-0.748359 z m -1.30962,-0.187088 -0.37418,-0.374178 1.4967,-1.496704 0.37418,0.374177 z m 1.68379,-0.187084 -0.37418,-0.374178 0.74835,-0.748352 q 0.23387,-0.233862 0.23387,-0.561266 0,-0.327405 -0.23387,-0.561266 -0.23386,-0.23386 -0.56126,-0.233861 -0.32741,0 -0.56127,0.233861 l -0.74835,0.748353 -0.37418,-0.374177 0.74836,-0.748353 q 0.3882,-0.388208 0.93544,-0.388213 0.54723,1e-6 0.93544,0.388211 0.38821,0.388208 0.38822,0.93544 -10e-6,0.54724 -0.38822,0.935448 z"
             id="path28"
             style="stroke-width:0.00661458" />
          <path
             style="fill:none;stroke:#000000;stroke-width:0.529167;stroke-linecap:butt;stroke-linejoin:miter;stroke-dasharray:none;stroke-opacity:1;marker-end:url(#ArrowWide)"
             d="m 25.51788,31.365899 c 0,0 1.005745,6.740502 3.127327,9.179305 2.407324,2.767269 9.824003,4.956395 9.824003,4.956395"
             id="path29" />
        </g>
        <g
           id="g31"
           transform="translate(-79.999805)"
           style="stroke-width:0.999998">
          <path
             d="m 31.578639,36.930477 -0.74836,0.74836 q -0.38821,0.388208 -0.93544,0.388206 -0.54724,-2e-6 -0.93544,-0.388211 -0.38821,-0.388209 -0.38822,-0.93544 0,-0.547232 0.38821,-0.935441 l 0.74836,-0.74836 0.37418,0.374177 -0.74836,0.74836 q -0.23386,0.233861 -0.23386,0.561266 0,0.327405 0.23386,0.561266 0.23386,0.23386 0.56126,0.23386 0.32741,0 0.56127,-0.233861 l 0.74836,-0.748359 z m -1.30962,-0.187088 -0.37418,-0.374178 1.4967,-1.496704 0.37418,0.374177 z m 1.68379,-0.187084 -0.37418,-0.374178 0.74835,-0.748352 q 0.23387,-0.233862 0.23387,-0.561266 0,-0.327405 -0.23387,-0.561266 -0.23386,-0.23386 -0.56126,-0.233861 -0.32741,0 -0.56127,0.233861 l -0.74835,0.748353 -0.37418,-0.374177 0.74836,-0.748353 q 0.3882,-0.388208 0.93544,-0.388213 0.54723,10e-7 0.93544,0.388211 0.38821,0.388208 0.38822,0.93544 -1e-5,0.54724 -0.38822,0.935448 z"
             id="path30"
             style="stroke-width:0.00661456" />
          <path
             style="fill:none;stroke:#000000;stroke-width:0.529166;stroke-linecap:butt;stroke-linejoin:miter;stroke-dasharray:none;stroke-opacity:1;marker-end:url(#ArrowWide)"
             d="m 25.51788,31.365899 c 0,0 1.005745,6.740502 3.127327,9.179305 2.407324,2.767269 9.824003,4.956395 9.824003,4.956395"
             id="path31" />
        </g>
        <path
           d="m 31.578466,36.930477 -0.74836,0.74836 q -0.38821,0.388208 -0.93544,0.388206 -0.54724,-2e-6 -0.93544,-0.388211 -0.38821,-0.388209 -0.38822,-0.93544 0,-0.547232 0.38821,-0.935441 l 0.74836,-0.74836 0.37418,0.374177 -0.74836,0.74836 q -0.23386,0.233861 -0.23386,0.561266 0,0.327405 0.23386,0.561266 0.23386,0.23386 0.56126,0.23386 0.32741,0 0.56127,-0.233861 l 0.74836,-0.748359 z m -1.30962,-0.187088 -0.37418,-0.374178 1.4967,-1.496704 0.37418,0.374177 z m 1.68379,-0.187084 -0.37418,-0.374178 0.74835,-0.748352 q 0.23387,-0.233862 0.23387,-0.561266 0,-0.327405 -0.23387,-0.561266 -0.23386,-0.23386 -0.56126,-0.233861 -0.32741,0 -0.56127,0.233861 l -0.74835,0.748353 -0.37418,-0.374177 0.74836,-0.748353 q 0.3882,-0.388208 0.93544,-0.388213 0.54723,10e-7 0.93544,0.388211 0.38821,0.388208 0.38822,0.93544 -10e-6,0.54724 -0.38822,0.935448 z"
           id="path32"
           style="stroke-width:0.00661456" />
        <path
           style="fill:none;stroke:#000000;stroke-width:0.529166;stroke-linecap:butt;stroke-linejoin:miter;stroke-dasharray:none;stroke-opacity:1;marker-end:url(#ArrowWide)"
           d="m 25.51788,31.365899 c 0,0 1.005745,6.740502 3.127327,9.179305 2.407324,2.767269 9.824003,4.956395 9.824003,4.956395"
           id="path33" />
      </g>
    </g>
  </g>
</svg>
